<?xml version="1.0" encoding="UTF-8" standalone="no"?>
<svg
   width="16"
   height="16"
   viewBox="0 0 16 16"
   id="svg2"
   version="1.1"
   inkscape:version="1.2.1 (9c6d41e410, 2022-07-14, custom)"
   sodipodi:docname="checkbox.svg"
   xmlns:inkscape="http://www.inkscape.org/namespaces/inkscape"
   xmlns:sodipodi="http://sodipodi.sourceforge.net/DTD/sodipodi-0.dtd"
   xmlns="http://www.w3.org/2000/svg"
   xmlns:svg="http://www.w3.org/2000/svg"
   xmlns:rdf="http://www.w3.org/1999/02/22-rdf-syntax-ns#"
   xmlns:cc="http://creativecommons.org/ns#"
   xmlns:dc="http://purl.org/dc/elements/1.1/">
  <defs
     id="defs4" />
  <sodipodi:namedview
     id="base"
     pagecolor="#ffffff"
     bordercolor="#666666"
     borderopacity="1.0"
     inkscape:pageopacity="0.0"
     inkscape:pageshadow="2"
     inkscape:zoom="15.839192"
     inkscape:cx="7.6392786"
     inkscape:cy="10.385631"
     inkscape:document-units="px"
     inkscape:current-layer="layer1"
     showgrid="true"
     units="px"
     inkscape:snap-bbox="true"
     inkscape:bbox-paths="true"
     inkscape:bbox-nodes="true"
     inkscape:snap-global="false"
     inkscape:window-width="1920"
     inkscape:window-height="993"
     inkscape:window-x="0"
     inkscape:window-y="0"
     inkscape:window-maximized="1"
     inkscape:document-rotation="0"
     inkscape:pagecheckerboard="0"
     inkscape:showpageshadow="0"
     inkscape:deskcolor="#d1d1d1">
    <inkscape:grid
       type="xygrid"
       id="grid3336" />
  </sodipodi:namedview>
  <metadata
     id="metadata7">
    <rdf:RDF>
      <cc:Work
         rdf:about="">
        <dc:format>image/svg+xml</dc:format>
        <dc:type
           rdf:resource="http://purl.org/dc/dcmitype/StillImage" />
      </cc:Work>
    </rdf:RDF>
  </metadata>
  <g
     inkscape:label="Layer 1"
     inkscape:groupmode="layer"
     id="layer1"
     transform="translate(0,-1036.3622)">
    <path
       id="path1090"
       style="fill:#000000;stroke:none;stroke-width:1.78935"
       d="M 1.5625 1036.3622 C 0.69690109 1036.3622 0 1037.0591 0 1037.9247 L 0 1050.7997 C 0 1051.6653 0.69690109 1052.3622 1.5625 1052.3622 L 14.4375 1052.3622 C 15.303099 1052.3622 16 1051.6653 16 1050.7997 L 16 1037.9247 C 16 1037.0591 15.303099 1036.3622 14.4375 1036.3622 L 1.5625 1036.3622 z M 12.818359 1039.7294 A 1.05 1.05 0 0 1 13.224609 1039.786 A 1.05 1.05 0 0 1 13.578125 1039.995 A 1.05 1.05 0 0 1 13.673828 1040.0927 A 1.05 1.05 0 0 1 13.757812 1040.204 A 1.05 1.05 0 0 1 13.824219 1040.3231 A 1.05 1.05 0 0 1 13.876953 1040.4501 A 1.05 1.05 0 0 1 13.912109 1040.5829 A 1.05 1.05 0 0 1 13.927734 1040.7196 A 1.05 1.05 0 0 0 13.927734 1040.7216 A 1.05 1.05 0 0 0 13.927734 1040.7235 A 1.05 1.05 0 0 0 13.927734 1040.7255 A 1.05 1.05 0 0 0 13.927734 1040.7274 A 1.05 1.05 0 0 0 13.927734 1040.7294 A 1.05 1.05 0 0 1 13.929688 1040.7392 A 1.05 1.05 0 0 0 13.929688 1040.7411 A 1.05 1.05 0 0 0 13.929688 1040.7431 A 1.05 1.05 0 0 0 13.929688 1040.745 A 1.05 1.05 0 0 0 13.929688 1040.747 A 1.05 1.05 0 0 0 13.929688 1040.7489 A 1.05 1.05 0 0 0 13.929688 1040.7509 A 1.05 1.05 0 0 0 13.929688 1040.7528 A 1.05 1.05 0 0 0 13.929688 1040.7548 A 1.05 1.05 0 0 0 13.929688 1040.7567 A 1.05 1.05 0 0 0 13.929688 1040.7587 A 1.05 1.05 0 0 0 13.929688 1040.7606 A 1.05 1.05 0 0 0 13.929688 1040.7626 A 1.05 1.05 0 0 0 13.929688 1040.7645 A 1.05 1.05 0 0 0 13.929688 1040.7665 A 1.05 1.05 0 0 0 13.929688 1040.7685 A 1.05 1.05 0 0 0 13.929688 1040.7704 A 1.05 1.05 0 0 0 13.929688 1040.7724 A 1.05 1.05 0 0 0 13.929688 1040.7743 A 1.05 1.05 0 0 0 13.929688 1040.7763 A 1.05 1.05 0 0 0 13.929688 1040.7782 A 1.05 1.05 0 0 0 13.929688 1040.7802 A 1.05 1.05 0 0 0 13.929688 1040.7821 A 1.05 1.05 0 0 0 13.929688 1040.7841 A 1.05 1.05 0 0 0 13.929688 1040.786 A 1.05 1.05 0 0 0 13.929688 1040.788 A 1.05 1.05 0 0 0 13.929688 1040.7899 A 1.05 1.05 0 0 0 13.929688 1040.7919 A 1.05 1.05 0 0 0 13.929688 1040.7938 A 1.05 1.05 0 0 0 13.929688 1040.7958 A 1.05 1.05 0 0 0 13.929688 1040.7977 A 1.05 1.05 0 0 0 13.929688 1040.7997 A 1.05 1.05 0 0 0 13.929688 1040.8017 A 1.05 1.05 0 0 0 13.929688 1040.8036 A 1.05 1.05 0 0 0 13.929688 1040.8056 A 1.05 1.05 0 0 0 13.929688 1040.8075 A 1.05 1.05 0 0 0 13.929688 1040.8095 A 1.05 1.05 0 0 0 13.929688 1040.8114 A 1.05 1.05 0 0 0 13.929688 1040.8134 A 1.05 1.05 0 0 0 13.929688 1040.8153 A 1.05 1.05 0 0 0 13.929688 1040.8173 A 1.05 1.05 0 0 0 13.929688 1040.8192 A 1.05 1.05 0 0 0 13.929688 1040.8212 A 1.05 1.05 0 0 0 13.929688 1040.8231 A 1.05 1.05 0 0 0 13.929688 1040.8251 A 1.05 1.05 0 0 0 13.929688 1040.827 A 1.05 1.05 0 0 0 13.929688 1040.829 A 1.05 1.05 0 0 0 13.929688 1040.831 A 1.05 1.05 0 0 0 13.929688 1040.8329 A 1.05 1.05 0 0 0 13.929688 1040.8349 A 1.05 1.05 0 0 0 13.929688 1040.8368 A 1.05 1.05 0 0 0 13.929688 1040.8388 A 1.05 1.05 0 0 0 13.929688 1040.8407 A 1.05 1.05 0 0 0 13.929688 1040.8427 A 1.05 1.05 0 0 0 13.929688 1040.8446 A 1.05 1.05 0 0 0 13.929688 1040.8466 A 1.05 1.05 0 0 0 13.929688 1040.8485 A 1.05 1.05 0 0 1 13.927734 1040.8583 A 1.05 1.05 0 0 0 13.927734 1040.8602 A 1.05 1.05 0 0 0 13.927734 1040.8622 A 1.05 1.05 0 0 0 13.927734 1040.8642 A 1.05 1.05 0 0 0 13.927734 1040.8661 A 1.05 1.05 0 0 0 13.927734 1040.8681 A 1.05 1.05 0 0 0 13.927734 1040.87 A 1.05 1.05 0 0 1 13.908203 1041.0067 A 1.05 1.05 0 0 1 13.871094 1041.1376 A 1.05 1.05 0 0 1 13.818359 1041.2645 A 1.05 1.05 0 0 1 13.748047 1041.3837 A 1.05 1.05 0 0 1 13.664062 1041.4911 L 7.2988281 1048.6435 A 1.050105 1.050105 0 0 1 6.984375 1048.8856 A 1.050105 1.050105 0 0 1 6.6035156 1048.9931 A 1.050105 1.050105 0 0 1 6.2089844 1048.952 A 1.050105 1.050105 0 0 1 5.859375 1048.7665 L 2.4648438 1046.0634 A 1.05 1.05 0 0 1 2.2011719 1045.7509 A 1.05 1.05 0 0 1 2.0761719 1045.3602 A 1.05 1.05 0 0 1 2.1113281 1044.954 A 1.05 1.05 0 0 1 2.2988281 1044.5888 A 1.05 1.05 0 0 1 2.6113281 1044.3251 A 1.05 1.05 0 0 1 3.0019531 1044.2001 A 1.05 1.05 0 0 1 3.4101562 1044.2313 A 1.05 1.05 0 0 1 3.7734375 1044.4188 L 6.390625 1046.5028 L 12.095703 1040.0927 A 1.05 1.05 0 0 1 12.421875 1039.8466 A 1.05 1.05 0 0 1 12.818359 1039.7431 L 12.818359 1039.7294 z " />
  </g>
</svg>
