<?xml version="1.0" encoding="UTF-8" standalone="no"?>
<svg
   width="32"
   height="16"
   viewBox="0 0 32 16"
   id="svg4140"
   version="1.1"
   inkscape:version="1.2.1 (9c6d41e410, 2022-07-14, custom)"
   sodipodi:docname="dark-switch-on.svg"
   xmlns:inkscape="http://www.inkscape.org/namespaces/inkscape"
   xmlns:sodipodi="http://sodipodi.sourceforge.net/DTD/sodipodi-0.dtd"
   xmlns="http://www.w3.org/2000/svg"
   xmlns:svg="http://www.w3.org/2000/svg"
   xmlns:rdf="http://www.w3.org/1999/02/22-rdf-syntax-ns#"
   xmlns:cc="http://creativecommons.org/ns#"
   xmlns:dc="http://purl.org/dc/elements/1.1/">
  <defs
     id="defs4142" />
  <sodipodi:namedview
     id="base"
     pagecolor="#ffffff"
     bordercolor="#666666"
     borderopacity="1.0"
     inkscape:pageopacity="0.0"
     inkscape:pageshadow="2"
     inkscape:zoom="7.919596"
     inkscape:cx="16.225575"
     inkscape:cy="5.8083771"
     inkscape:document-units="px"
     inkscape:current-layer="layer1"
     showgrid="false"
     units="px"
     inkscape:window-width="1920"
     inkscape:window-height="1010"
     inkscape:window-x="0"
     inkscape:window-y="32"
     inkscape:window-maximized="1"
     inkscape:document-rotation="0"
     inkscape:pagecheckerboard="0"
     inkscape:showpageshadow="0"
     inkscape:deskcolor="#d1d1d1">
    <inkscape:grid
       type="xygrid"
       id="grid4688" />
  </sodipodi:namedview>
  <metadata
     id="metadata4145">
    <rdf:RDF>
      <cc:Work
         rdf:about="">
        <dc:format>image/svg+xml</dc:format>
        <dc:type
           rdf:resource="http://purl.org/dc/dcmitype/StillImage" />
      </cc:Work>
    </rdf:RDF>
  </metadata>
  <g
     inkscape:label="Layer 1"
     inkscape:groupmode="layer"
     id="layer1"
     transform="translate(0,-1036.3622)">
    <path
       id="path416"
       style="fill:#ffffff;stroke-width:1.28506;stroke:none"
       d="M 8 1036.3622 C 3.5680044 1036.3622 0 1039.9302 0 1044.3622 C 0 1048.7942 3.5680044 1052.3622 8 1052.3622 L 24 1052.3622 C 28.431996 1052.3622 32 1048.7942 32 1044.3622 C 32 1039.9302 28.431996 1036.3622 24 1036.3622 L 8 1036.3622 z M 24 1040.3622 C 24.1385 1040.3622 24.275361 1040.3701 24.410156 1040.3837 C 24.544951 1040.3973 24.678164 1040.4157 24.808594 1040.4423 C 24.939023 1040.4688 25.066002 1040.503 25.191406 1040.5419 C 25.31681 1040.5807 25.440828 1040.6242 25.560547 1040.6747 C 25.680266 1040.7252 25.796783 1040.7812 25.910156 1040.8427 C 26.023529 1040.9041 26.133867 1040.9721 26.240234 1041.0438 C 26.346601 1041.1156 26.448174 1041.1929 26.546875 1041.2743 C 26.645576 1041.3557 26.739703 1041.4417 26.830078 1041.5321 C 26.920453 1041.6225 27.006502 1041.7166 27.087891 1041.8153 C 27.169279 1041.914 27.246617 1042.0156 27.318359 1042.122 C 27.390101 1042.2283 27.458096 1042.3387 27.519531 1042.452 C 27.580967 1042.5654 27.637031 1042.6819 27.6875 1042.8017 C 27.737969 1042.9214 27.781471 1043.0454 27.820312 1043.1708 C 27.859154 1043.2962 27.893367 1043.4232 27.919922 1043.5536 C 27.946477 1043.684 27.964908 1043.8172 27.978516 1043.952 C 27.992123 1044.0868 28 1044.2237 28 1044.3622 C 28 1044.5007 27.992123 1044.6376 27.978516 1044.7724 C 27.964908 1044.9072 27.946477 1045.0404 27.919922 1045.1708 C 27.893367 1045.3012 27.859154 1045.4282 27.820312 1045.5536 C 27.781471 1045.679 27.737969 1045.803 27.6875 1045.9227 C 27.637031 1046.0425 27.580967 1046.159 27.519531 1046.2724 C 27.458096 1046.3857 27.390101 1046.4961 27.318359 1046.6024 C 27.246617 1046.7088 27.169279 1046.8104 27.087891 1046.9091 C 27.006502 1047.0078 26.920453 1047.1019 26.830078 1047.1923 C 26.739703 1047.2827 26.645576 1047.3687 26.546875 1047.4501 C 26.448174 1047.5315 26.346601 1047.6088 26.240234 1047.6806 C 26.133867 1047.7523 26.023529 1047.8203 25.910156 1047.8817 C 25.796783 1047.9432 25.680266 1047.9992 25.560547 1048.0497 C 25.440828 1048.1002 25.31681 1048.1437 25.191406 1048.1825 C 25.066002 1048.2214 24.939023 1048.2556 24.808594 1048.2821 C 24.678164 1048.3087 24.544951 1048.3271 24.410156 1048.3407 C 24.275361 1048.3543 24.1385 1048.3622 24 1048.3622 C 23.8615 1048.3622 23.724639 1048.3543 23.589844 1048.3407 C 23.455049 1048.3271 23.321836 1048.3087 23.191406 1048.2821 C 23.060977 1048.2556 22.933998 1048.2214 22.808594 1048.1825 C 22.68319 1048.1437 22.559172 1048.1002 22.439453 1048.0497 C 22.319734 1047.9992 22.203217 1047.9432 22.089844 1047.8817 C 21.976471 1047.8203 21.866133 1047.7523 21.759766 1047.6806 C 21.653399 1047.6088 21.551826 1047.5315 21.453125 1047.4501 C 21.354424 1047.3687 21.260297 1047.2827 21.169922 1047.1923 C 21.079547 1047.1019 20.993498 1047.0078 20.912109 1046.9091 C 20.830721 1046.8104 20.753383 1046.7088 20.681641 1046.6024 C 20.609899 1046.4961 20.541904 1046.3857 20.480469 1046.2724 C 20.419033 1046.159 20.362969 1046.0425 20.3125 1045.9227 C 20.262031 1045.803 20.218529 1045.679 20.179688 1045.5536 C 20.140846 1045.4282 20.106633 1045.3012 20.080078 1045.1708 C 20.053523 1045.0404 20.035092 1044.9072 20.021484 1044.7724 C 20.007877 1044.6376 20 1044.5007 20 1044.3622 C 20 1044.2237 20.007877 1044.0868 20.021484 1043.952 C 20.035092 1043.8172 20.053523 1043.684 20.080078 1043.5536 C 20.106633 1043.4232 20.140846 1043.2962 20.179688 1043.1708 C 20.218529 1043.0454 20.262031 1042.9214 20.3125 1042.8017 C 20.362969 1042.6819 20.419033 1042.5654 20.480469 1042.452 C 20.541904 1042.3387 20.609899 1042.2283 20.681641 1042.122 C 20.753383 1042.0156 20.830721 1041.914 20.912109 1041.8153 C 20.993498 1041.7166 21.079547 1041.6225 21.169922 1041.5321 C 21.260297 1041.4417 21.354424 1041.3557 21.453125 1041.2743 C 21.551826 1041.1929 21.653399 1041.1156 21.759766 1041.0438 C 21.866133 1040.9721 21.976471 1040.9041 22.089844 1040.8427 C 22.203217 1040.7812 22.319734 1040.7252 22.439453 1040.6747 C 22.559172 1040.6242 22.68319 1040.5807 22.808594 1040.5419 C 22.933998 1040.503 23.060977 1040.4688 23.191406 1040.4423 C 23.321836 1040.4157 23.455049 1040.3973 23.589844 1040.3837 C 23.724639 1040.3701 23.8615 1040.3622 24 1040.3622 z " />
  </g>
</svg>
