<?xml version="1.0" encoding="UTF-8" standalone="no"?>
<svg
   width="32"
   height="16"
   viewBox="0 0 32 16"
   id="svg4140"
   version="1.1"
   inkscape:version="1.1.1 (3bf5ae0d25, 2021-09-20, custom)"
   sodipodi:docname="dark-switch-on.svg"
   xmlns:inkscape="http://www.inkscape.org/namespaces/inkscape"
   xmlns:sodipodi="http://sodipodi.sourceforge.net/DTD/sodipodi-0.dtd"
   xmlns="http://www.w3.org/2000/svg"
   xmlns:svg="http://www.w3.org/2000/svg"
   xmlns:rdf="http://www.w3.org/1999/02/22-rdf-syntax-ns#"
   xmlns:cc="http://creativecommons.org/ns#"
   xmlns:dc="http://purl.org/dc/elements/1.1/">
  <defs
     id="defs4142" />
  <sodipodi:namedview
     id="base"
     pagecolor="#ffffff"
     bordercolor="#666666"
     borderopacity="1.0"
     inkscape:pageopacity="0.0"
     inkscape:pageshadow="2"
     inkscape:zoom="15.839192"
     inkscape:cx="11.301082"
     inkscape:cy="1.1364216"
     inkscape:document-units="px"
     inkscape:current-layer="layer1"
     showgrid="false"
     units="px"
     inkscape:window-width="1920"
     inkscape:window-height="991"
     inkscape:window-x="0"
     inkscape:window-y="0"
     inkscape:window-maximized="1"
     inkscape:document-rotation="0"
     inkscape:pagecheckerboard="0">
    <inkscape:grid
       type="xygrid"
       id="grid4688" />
  </sodipodi:namedview>
  <metadata
     id="metadata4145">
    <rdf:RDF>
      <cc:Work
         rdf:about="">
        <dc:format>image/svg+xml</dc:format>
        <dc:type
           rdf:resource="http://purl.org/dc/dcmitype/StillImage" />
      </cc:Work>
    </rdf:RDF>
  </metadata>
  <g
     inkscape:label="Layer 1"
     inkscape:groupmode="layer"
     id="layer1"
     transform="translate(0,-1036.3622)">
    <path
       id="path1514"
       style="opacity:0.99;fill:#ffffff;stroke-width:3.07934"
       d="m 24,1036.3622 c 4.432,0 8,3.568 8,8 0,4.432 -3.568,8 -8,8 H 8 c -4.432,0 -8,-3.568 -8,-8 0,-4.432 3.568,-8 8,-8 z m -0.5,1 h -15 c -0.129844,0 -0.258534,0 -0.386719,0.01 -0.128184,0.01 -0.256442,0.014 -0.382812,0.025 -0.252741,0.024 -0.501538,0.061 -0.746094,0.1074 -0.244556,0.047 -0.483617,0.1039 -0.71875,0.1719 -0.235133,0.068 -0.46498,0.146 -0.689453,0.2343 -0.224473,0.088 -0.443676,0.1855 -0.65625,0.293 -0.212575,0.1075 -0.419702,0.2241 -0.619141,0.3496 -0.199438,0.1256 -0.391107,0.2599 -0.576172,0.4024 -0.185064,0.1424 -0.36375,0.293 -0.533203,0.4511 -0.169453,0.1582 -0.329818,0.3253 -0.482422,0.4981 -0.152603,0.1727 -0.297124,0.3509 -0.43164,0.5371 -0.134517,0.1861 -0.259809,0.3797 -0.375,0.5781 -0.115192,0.1984 -0.219824,0.4018 -0.314453,0.6113 -0.04731,0.1048 -0.09282,0.2111 -0.134766,0.3184 -0.04194,0.1073 -0.08077,0.2164 -0.117187,0.3262 -0.03641,0.1097 -0.07083,0.22 -0.101563,0.332 -0.03073,0.112 -0.05714,0.2257 -0.08203,0.3398 -0.0249,0.1142 -0.0475,0.2296 -0.06641,0.3457 -0.0189,0.1162 -0.03412,0.2337 -0.04688,0.3516 -0.01276,0.118 -0.02284,0.2358 -0.0293,0.3555 C 1.00331,1044.1205 1,1044.241 1,1044.3622 c 0,0.1212 0.0033,0.2417 0.0098,0.3613 0.0065,0.1197 0.01654,0.2376 0.0293,0.3555 0.01276,0.1179 0.02797,0.2355 0.04688,0.3516 0.0189,0.1161 0.04151,0.2315 0.06641,0.3457 0.0249,0.1141 0.0513,0.2278 0.08203,0.3398 0.03073,0.112 0.06515,0.2223 0.101563,0.332 0.03641,0.1098 0.07525,0.2189 0.117187,0.3262 0.04194,0.1073 0.08745,0.2136 0.134766,0.3184 0.09463,0.2095 0.199261,0.4129 0.314453,0.6113 0.115191,0.1984 0.240483,0.392 0.375,0.5781 0.134516,0.1862 0.279037,0.3644 0.43164,0.5371 0.152604,0.1728 0.312969,0.3399 0.482422,0.4981 0.169453,0.1581 0.348139,0.3087 0.533203,0.4512 0.185065,0.1424 0.376734,0.2767 0.576172,0.4023 0.199439,0.1255 0.406566,0.2421 0.619141,0.3496 0.212574,0.1075 0.431777,0.2047 0.65625,0.293 0.224473,0.088 0.45432,0.1664 0.689453,0.2343 0.235133,0.068 0.474194,0.1255 0.71875,0.1719 0.244556,0.047 0.493353,0.084 0.746094,0.1074 0.12637,0.012 0.254628,0.019 0.382812,0.025 0.12814,0.01 0.25683,0.01 0.386674,0.01 h 15 c 0.129844,0 0.258534,-0 0.386719,-0.01 0.128184,-0.01 0.256442,-0.013 0.382812,-0.025 0.252741,-0.024 0.501538,-0.061 0.746094,-0.1074 0.244556,-0.046 0.483617,-0.1039 0.71875,-0.1719 0.235133,-0.068 0.46498,-0.146 0.689453,-0.2343 0.224473,-0.088 0.443676,-0.1855 0.65625,-0.293 0.212575,-0.1075 0.419702,-0.2241 0.619141,-0.3496 0.199438,-0.1256 0.391107,-0.2599 0.576172,-0.4023 0.185064,-0.1425 0.36375,-0.2931 0.533203,-0.4512 0.169453,-0.1582 0.329818,-0.3253 0.482422,-0.4981 0.152603,-0.1727 0.297124,-0.3509 0.43164,-0.5371 0.134517,-0.1861 0.259809,-0.3797 0.375,-0.5781 0.115192,-0.1984 0.219824,-0.4018 0.314453,-0.6113 0.04731,-0.1048 0.09282,-0.2111 0.134766,-0.3184 0.04194,-0.1073 0.08077,-0.2164 0.117187,-0.3262 0.03641,-0.1097 0.07083,-0.22 0.101563,-0.332 0.03073,-0.112 0.05714,-0.2257 0.08203,-0.3398 0.0249,-0.1142 0.0475,-0.2296 0.06641,-0.3457 0.0189,-0.1161 0.03412,-0.2337 0.04687,-0.3516 0.01276,-0.1179 0.02284,-0.2358 0.0293,-0.3555 0.0065,-0.1196 0.0098,-0.2401 0.0098,-0.3613 0,-0.1212 -0.0033,-0.2417 -0.0098,-0.3613 -0.0065,-0.1197 -0.01654,-0.2376 -0.0293,-0.3555 -0.01276,-0.1179 -0.02797,-0.2355 -0.04687,-0.3516 -0.0189,-0.1161 -0.04151,-0.2315 -0.06641,-0.3457 -0.0249,-0.1141 -0.0513,-0.2278 -0.08203,-0.3398 -0.03073,-0.112 -0.06515,-0.2223 -0.101563,-0.332 -0.03641,-0.1098 -0.07525,-0.2189 -0.117187,-0.3262 -0.04194,-0.1073 -0.08745,-0.2136 -0.134766,-0.3184 -0.09463,-0.2095 -0.199261,-0.4129 -0.314453,-0.6113 -0.115191,-0.1984 -0.240483,-0.392 -0.375,-0.5781 -0.134516,-0.1862 -0.279037,-0.3644 -0.43164,-0.5371 -0.152604,-0.1728 -0.312969,-0.3399 -0.482422,-0.4981 -0.169453,-0.1581 -0.348139,-0.3087 -0.533203,-0.4511 -0.185065,-0.1425 -0.376734,-0.2768 -0.576172,-0.4024 -0.199439,-0.1255 -0.406566,-0.2421 -0.619141,-0.3496 -0.212574,-0.1075 -0.431777,-0.2047 -0.65625,-0.293 -0.224473,-0.088 -0.45432,-0.1664 -0.689453,-0.2343 -0.235133,-0.068 -0.474194,-0.1255 -0.71875,-0.1719 -0.244556,-0.046 -0.493353,-0.084 -0.746094,-0.1074 -0.12637,-0.012 -0.254628,-0.019 -0.382812,-0.025 -0.128185,-0.01 -0.256875,-0.01 -0.386719,-0.01 z" />
    <circle
       style="opacity:0.99;fill:#ffffff;stroke-width:2.4345"
       id="path1619"
       cx="-24"
       cy="1044.3622"
       r="5"
       transform="scale(-1,1)" />
  </g>
</svg>
