<?xml version="1.0" encoding="UTF-8" standalone="no"?>
<svg
   width="16"
   height="16"
   viewBox="0 0 16 16"
   id="svg2"
   version="1.1"
   inkscape:version="1.2.1 (9c6d41e410, 2022-07-14)"
   sodipodi:docname="dark-checkbox.svg"
   xmlns:inkscape="http://www.inkscape.org/namespaces/inkscape"
   xmlns:sodipodi="http://sodipodi.sourceforge.net/DTD/sodipodi-0.dtd"
   xmlns="http://www.w3.org/2000/svg"
   xmlns:svg="http://www.w3.org/2000/svg"
   xmlns:rdf="http://www.w3.org/1999/02/22-rdf-syntax-ns#"
   xmlns:cc="http://creativecommons.org/ns#"
   xmlns:dc="http://purl.org/dc/elements/1.1/">
  <defs
     id="defs4" />
  <sodipodi:namedview
     id="base"
     pagecolor="#ffffff"
     bordercolor="#666666"
     borderopacity="1.0"
     inkscape:pageopacity="0.0"
     inkscape:pageshadow="2"
     inkscape:zoom="15.839192"
     inkscape:cx="19.508571"
     inkscape:cy="10.354064"
     inkscape:document-units="px"
     inkscape:current-layer="layer1"
     showgrid="true"
     units="px"
     inkscape:snap-bbox="true"
     inkscape:bbox-paths="true"
     inkscape:bbox-nodes="true"
     inkscape:snap-global="false"
     inkscape:window-width="1920"
     inkscape:window-height="992"
     inkscape:window-x="0"
     inkscape:window-y="0"
     inkscape:window-maximized="1"
     inkscape:document-rotation="0"
     inkscape:pagecheckerboard="0"
     inkscape:showpageshadow="0"
     inkscape:deskcolor="#d1d1d1">
    <inkscape:grid
       type="xygrid"
       id="grid3336" />
  </sodipodi:namedview>
  <metadata
     id="metadata7">
    <rdf:RDF>
      <cc:Work
         rdf:about="">
        <dc:format>image/svg+xml</dc:format>
        <dc:type
           rdf:resource="http://purl.org/dc/dcmitype/StillImage" />
      </cc:Work>
    </rdf:RDF>
  </metadata>
  <g
     inkscape:label="Layer 1"
     inkscape:groupmode="layer"
     id="layer1"
     transform="translate(0,-1036.3622)">
    <path
       id="path512"
       style="color:#000000;opacity:1;fill:#ffffff;fill-opacity:1;fill-rule:evenodd;-inkscape-stroke:none"
       d="M 3.3242188 0 C 1.4916344 0 -2.9605918e-16 1.4917206 0 3.3242188 L 0 12.677734 C 0 14.510333 1.4916345 16 3.3242188 16 L 12.675781 16 C 14.508365 16 16 14.510333 16 12.677734 L 16 3.3242188 C 16 1.4917206 14.508365 -2.9605918e-16 12.675781 0 L 3.3242188 0 z M 12.818359 3.375 A 1.05 1.05 0 0 1 13.224609 3.4316406 A 1.05 1.05 0 0 1 13.578125 3.6386719 A 1.05 1.05 0 0 1 13.673828 3.7363281 A 1.05 1.05 0 0 1 13.757812 3.8476562 A 1.05 1.05 0 0 1 13.824219 3.9667969 A 1.05 1.05 0 0 1 13.876953 4.09375 A 1.05 1.05 0 0 1 13.912109 4.2265625 A 1.05 1.05 0 0 1 13.927734 4.3632812 A 1.05 1.05 0 0 1 13.927734 4.5 A 1.05 1.05 0 0 1 13.908203 4.6367188 A 1.05 1.05 0 0 1 13.871094 4.7675781 A 1.05 1.05 0 0 1 13.818359 4.8945312 A 1.05 1.05 0 0 1 13.748047 5.0136719 A 1.05 1.05 0 0 1 13.664062 5.1210938 L 7.2988281 12.273438 A 1.050105 1.050105 0 0 1 6.984375 12.515625 A 1.050105 1.050105 0 0 1 6.6035156 12.623047 A 1.050105 1.050105 0 0 1 6.2089844 12.582031 A 1.050105 1.050105 0 0 1 5.859375 12.396484 L 2.4648438 9.6933594 A 1.05 1.05 0 0 1 2.2011719 9.3808594 A 1.05 1.05 0 0 1 2.0761719 8.9902344 A 1.05 1.05 0 0 1 2.1113281 8.5839844 A 1.05 1.05 0 0 1 2.2988281 8.21875 A 1.05 1.05 0 0 1 2.6113281 7.9550781 A 1.05 1.05 0 0 1 3.0019531 7.8300781 A 1.05 1.05 0 0 1 3.4101562 7.8632812 A 1.05 1.05 0 0 1 3.7734375 8.0507812 L 6.390625 10.134766 L 12.095703 3.7246094 A 1.05 1.05 0 0 1 12.421875 3.4785156 A 1.05 1.05 0 0 1 12.818359 3.375 z "
       transform="translate(0,1036.3622)" />
  </g>
</svg>
