<?xml version="1.0" encoding="UTF-8" standalone="no"?>
<svg
   width="32"
   height="16"
   viewBox="0 0 32 16"
   id="svg4140"
   version="1.1"
   inkscape:version="1.2.1 (9c6d41e410, 2022-07-14, custom)"
   sodipodi:docname="dark-switch-off.svg"
   xmlns:inkscape="http://www.inkscape.org/namespaces/inkscape"
   xmlns:sodipodi="http://sodipodi.sourceforge.net/DTD/sodipodi-0.dtd"
   xmlns="http://www.w3.org/2000/svg"
   xmlns:svg="http://www.w3.org/2000/svg"
   xmlns:rdf="http://www.w3.org/1999/02/22-rdf-syntax-ns#"
   xmlns:cc="http://creativecommons.org/ns#"
   xmlns:dc="http://purl.org/dc/elements/1.1/">
  <defs
     id="defs4142" />
  <sodipodi:namedview
     id="base"
     pagecolor="#ffffff"
     bordercolor="#666666"
     borderopacity="1.0"
     inkscape:pageopacity="0.0"
     inkscape:pageshadow="2"
     inkscape:zoom="15.839192"
     inkscape:cx="14.047434"
     inkscape:cy="8.5862966"
     inkscape:document-units="px"
     inkscape:current-layer="layer1"
     showgrid="false"
     units="px"
     inkscape:window-width="1920"
     inkscape:window-height="1010"
     inkscape:window-x="0"
     inkscape:window-y="32"
     inkscape:window-maximized="1"
     inkscape:document-rotation="0"
     inkscape:pagecheckerboard="0"
     inkscape:showpageshadow="0"
     inkscape:deskcolor="#d1d1d1">
    <inkscape:grid
       type="xygrid"
       id="grid4688" />
  </sodipodi:namedview>
  <metadata
     id="metadata4145">
    <rdf:RDF>
      <cc:Work
         rdf:about="">
        <dc:format>image/svg+xml</dc:format>
        <dc:type
           rdf:resource="http://purl.org/dc/dcmitype/StillImage" />
      </cc:Work>
    </rdf:RDF>
  </metadata>
  <g
     inkscape:label="Layer 1"
     inkscape:groupmode="layer"
     id="layer1"
     transform="translate(0,-1036.3622)">
    <rect
       style="fill:#ffffff;stroke-width:0.454337"
       id="rect514-3"
       width="8"
       height="8"
       x="-12"
       y="1040.3622"
       ry="4"
       transform="scale(-1,1)" />
    <path
       id="path1142"
       style="fill:#ffffff;stroke:none;stroke-width:1.28506"
       d="m 8,1036.3622 c -4.431996,0 -8,3.568 -8,8 0,4.432 3.568004,8 8,8 h 16 c 4.431996,0 8,-3.568 8,-8 0,-4.432 -3.568004,-8 -8,-8 z m 0,1 h 16 c 0.121187,0 0.24169,0 0.361328,0.01 0.119639,0.01 0.237523,0.013 0.355469,0.025 0.235891,0.024 0.469014,0.061 0.697265,0.1074 0.228252,0.046 0.452418,0.1039 0.671876,0.1719 0.219457,0.068 0.435023,0.146 0.644531,0.2343 0.209507,0.088 0.412925,0.1855 0.611328,0.293 0.198403,0.1075 0.391982,0.2241 0.578125,0.3496 0.186142,0.1256 0.364382,0.2599 0.537109,0.4024 0.172727,0.1424 0.339891,0.293 0.498047,0.4511 0.158156,0.1582 0.308742,0.3253 0.451172,0.4981 0.14243,0.1727 0.276795,0.3509 0.402344,0.5371 0.125548,0.1861 0.242097,0.3797 0.349609,0.5781 0.107512,0.1984 0.204649,0.4018 0.292969,0.6113 0.08832,0.2095 0.166402,0.4251 0.234375,0.6446 0.06797,0.2194 0.125404,0.4436 0.171875,0.6718 0.04647,0.2283 0.08361,0.4614 0.107422,0.6973 0.01191,0.1179 0.01937,0.2358 0.02539,0.3555 0.006,0.1196 0.0098,0.2401 0.0098,0.3613 0,0.1212 -0.0037,0.2417 -0.0098,0.3613 -0.006,0.1197 -0.01348,0.2376 -0.02539,0.3555 -0.02381,0.2359 -0.06095,0.469 -0.107422,0.6973 -0.04647,0.2282 -0.103902,0.4524 -0.171875,0.6718 -0.06797,0.2195 -0.146055,0.4351 -0.234375,0.6446 -0.08832,0.2095 -0.185457,0.4129 -0.292969,0.6113 -0.107512,0.1984 -0.224061,0.392 -0.349609,0.5781 -0.125549,0.1862 -0.259914,0.3644 -0.402344,0.5371 -0.14243,0.1728 -0.293016,0.3399 -0.451172,0.4981 -0.158156,0.1581 -0.32532,0.3087 -0.498047,0.4512 -0.172727,0.1424 -0.350967,0.2767 -0.537109,0.4023 -0.186143,0.1255 -0.379722,0.2421 -0.578125,0.3496 -0.198403,0.1075 -0.401821,0.2047 -0.611328,0.293 -0.209508,0.088 -0.425074,0.1664 -0.644531,0.2343 -0.219458,0.068 -0.443624,0.1255 -0.671876,0.1719 -0.228251,0.047 -0.461374,0.084 -0.697265,0.1074 -0.117946,0.012 -0.23583,0.019 -0.355469,0.025 -0.119638,0.01 -0.240141,0.01 -0.361328,0.01 H 8 c -0.121187,0 -0.241689,0 -0.361328,-0.01 -0.119639,-0.01 -0.237523,-0.013 -0.355469,-0.025 -0.235891,-0.024 -0.469014,-0.061 -0.697265,-0.1074 -0.228252,-0.046 -0.452418,-0.1039 -0.671875,-0.1719 -0.219458,-0.068 -0.435024,-0.146 -0.644532,-0.2343 -0.209507,-0.088 -0.412925,-0.1855 -0.611328,-0.293 -0.198402,-0.1075 -0.391982,-0.2241 -0.578125,-0.3496 -0.186142,-0.1256 -0.364382,-0.2599 -0.537109,-0.4023 -0.172727,-0.1425 -0.339891,-0.2931 -0.498047,-0.4512 -0.158156,-0.1582 -0.308742,-0.3253 -0.451172,-0.4981 -0.14243,-0.1727 -0.276795,-0.3509 -0.402344,-0.5371 -0.125548,-0.1861 -0.242097,-0.3797 -0.349609,-0.5781 -0.107512,-0.1984 -0.204649,-0.4018 -0.292969,-0.6113 -0.08832,-0.2095 -0.166402,-0.4251 -0.234375,-0.6446 -0.06797,-0.2194 -0.125404,-0.4436 -0.171875,-0.6718 -0.04647,-0.2283 -0.08361,-0.4614 -0.107422,-0.6973 -0.01191,-0.1179 -0.01936,-0.2358 -0.02539,-0.3555 -0.006,-0.1196 -0.0098,-0.2401 -0.0098,-0.3613 0,-0.1212 0.0037,-0.2417 0.0098,-0.3613 0.006,-0.1197 0.01348,-0.2376 0.02539,-0.3555 0.02381,-0.2359 0.06095,-0.469 0.107422,-0.6973 0.04647,-0.2282 0.103902,-0.4524 0.171875,-0.6718 0.06797,-0.2195 0.146055,-0.4351 0.234375,-0.6446 0.08832,-0.2095 0.185457,-0.4129 0.292969,-0.6113 0.107512,-0.1984 0.224061,-0.392 0.349609,-0.5781 0.125549,-0.1862 0.259914,-0.3644 0.402344,-0.5371 0.14243,-0.1728 0.293016,-0.3399 0.451172,-0.4981 0.158156,-0.1581 0.32532,-0.3087 0.498047,-0.4511 0.172727,-0.1425 0.350967,-0.2768 0.537109,-0.4024 0.186143,-0.1255 0.379723,-0.2421 0.578125,-0.3496 0.198403,-0.1075 0.401821,-0.2047 0.611328,-0.293 0.209508,-0.088 0.425074,-0.1664 0.644532,-0.2343 0.219457,-0.068 0.443623,-0.1255 0.671875,-0.1719 0.228251,-0.046 0.461374,-0.084 0.697265,-0.1074 0.117946,-0.012 0.23583,-0.019 0.355469,-0.025 0.119639,-0.01 0.240141,-0.01 0.361328,-0.01 z" />
  </g>
</svg>
