<?xml version="1.0" encoding="UTF-8" standalone="no"?>
<svg
   width="32"
   height="16"
   viewBox="0 0 32 16"
   id="svg4140"
   version="1.1"
   inkscape:version="1.1.1 (3bf5ae0d25, 2021-09-20, custom)"
   sodipodi:docname="switch-off.svg"
   xmlns:inkscape="http://www.inkscape.org/namespaces/inkscape"
   xmlns:sodipodi="http://sodipodi.sourceforge.net/DTD/sodipodi-0.dtd"
   xmlns="http://www.w3.org/2000/svg"
   xmlns:svg="http://www.w3.org/2000/svg"
   xmlns:rdf="http://www.w3.org/1999/02/22-rdf-syntax-ns#"
   xmlns:cc="http://creativecommons.org/ns#"
   xmlns:dc="http://purl.org/dc/elements/1.1/">
  <defs
     id="defs4142" />
  <sodipodi:namedview
     id="base"
     pagecolor="#ffffff"
     bordercolor="#666666"
     borderopacity="1.0"
     inkscape:pageopacity="0.0"
     inkscape:pageshadow="2"
     inkscape:zoom="15.839192"
     inkscape:cx="11.301082"
     inkscape:cy="1.1364216"
     inkscape:document-units="px"
     inkscape:current-layer="layer1"
     showgrid="false"
     units="px"
     inkscape:window-width="1920"
     inkscape:window-height="991"
     inkscape:window-x="0"
     inkscape:window-y="0"
     inkscape:window-maximized="1"
     inkscape:document-rotation="0"
     inkscape:pagecheckerboard="0">
    <inkscape:grid
       type="xygrid"
       id="grid4688" />
  </sodipodi:namedview>
  <metadata
     id="metadata4145">
    <rdf:RDF>
      <cc:Work
         rdf:about="">
        <dc:format>image/svg+xml</dc:format>
        <dc:type
           rdf:resource="http://purl.org/dc/dcmitype/StillImage" />
      </cc:Work>
    </rdf:RDF>
  </metadata>
  <g
     inkscape:label="Layer 1"
     inkscape:groupmode="layer"
     id="layer1"
     transform="translate(0,-1036.3622)">
    <path
       id="path1514"
       style="opacity:0.99;fill:#000000;stroke-width:3.07934"
       d="M 8,0 C 3.568,0 0,3.568 0,8 c 0,4.432 3.568,8 8,8 h 16 c 4.432,0 8,-3.568 8,-8 0,-4.432 -3.568,-8 -8,-8 z m 0.5,1 h 15 c 0.129844,0 0.258534,0.00374 0.386719,0.00977 0.128184,0.00603 0.256442,0.013484 0.382812,0.025391 0.252741,0.023813 0.501538,0.060951 0.746094,0.1074219 0.244556,0.046471 0.483617,0.1039019 0.71875,0.171875 0.235133,0.067973 0.46498,0.1460547 0.689453,0.234375 0.224473,0.08832 0.443676,0.1854566 0.65625,0.2929688 0.212575,0.1075122 0.419702,0.2240605 0.619141,0.3496093 0.199438,0.1255489 0.391107,0.2599136 0.576172,0.4023438 0.185064,0.1424302 0.36375,0.2930156 0.533203,0.4511719 0.169453,0.1581562 0.329818,0.3253198 0.482422,0.4980469 0.152603,0.172727 0.297124,0.3509667 0.43164,0.5371093 0.134517,0.1861426 0.259809,0.3797222 0.375,0.578125 0.115192,0.1984029 0.219824,0.4018203 0.314453,0.6113281 0.04731,0.104754 0.09282,0.2110459 0.134766,0.3183594 0.04194,0.1073136 0.08077,0.2164431 0.117187,0.3261719 0.03641,0.1097288 0.07083,0.2200317 0.101563,0.3320313 0.03073,0.1119995 0.05714,0.2257177 0.08203,0.3398437 0.0249,0.114126 0.0475,0.2295952 0.06641,0.3457031 0.0189,0.116108 0.03412,0.233617 0.04688,0.3515625 0.01276,0.1179456 0.02284,0.23583 0.0293,0.3554688 C 30.99669,7.7583106 31,7.8788125 31,8 c 0,0.1211875 -0.0033,0.2416894 -0.0098,0.3613281 -0.0065,0.1196388 -0.01654,0.2375232 -0.0293,0.3554688 -0.01276,0.1179455 -0.02797,0.2354545 -0.04688,0.3515625 -0.0189,0.1161079 -0.04151,0.2315771 -0.06641,0.3457031 -0.0249,0.114126 -0.0513,0.2278442 -0.08203,0.3398437 -0.03073,0.1119996 -0.06515,0.2223025 -0.101563,0.3320318 -0.03641,0.109728 -0.07525,0.218858 -0.117187,0.326171 -0.04194,0.107314 -0.08745,0.213606 -0.134766,0.31836 -0.09463,0.209508 -0.199261,0.412925 -0.314453,0.611328 -0.115191,0.198403 -0.240483,0.391982 -0.375,0.578125 -0.134516,0.186142 -0.279037,0.364382 -0.43164,0.537109 -0.152604,0.172727 -0.312969,0.339891 -0.482422,0.498047 -0.169453,0.158156 -0.348139,0.308742 -0.533203,0.451172 -0.185065,0.14243 -0.376734,0.276795 -0.576172,0.402344 -0.199439,0.125549 -0.406566,0.242097 -0.619141,0.349609 -0.212574,0.107512 -0.431777,0.204649 -0.65625,0.292969 -0.224473,0.08832 -0.45432,0.166402 -0.689453,0.234375 -0.235133,0.06797 -0.474194,0.125404 -0.71875,0.171875 -0.244556,0.04647 -0.493353,0.08361 -0.746094,0.107422 -0.12637,0.01191 -0.254628,0.01937 -0.382812,0.02539 C 23.758534,14.99626 23.629844,15 23.5,15 H 8.5 C 8.3701563,15 8.2414656,14.99626 8.1132812,14.990234 7.9850969,14.984209 7.856839,14.97675 7.7304688,14.964844 7.4777283,14.941031 7.2289307,14.903893 6.984375,14.857422 6.7398193,14.810951 6.5007581,14.75352 6.265625,14.685547 6.0304919,14.617574 5.8006445,14.539492 5.5761719,14.451172 5.3516992,14.362852 5.1324963,14.265715 4.9199219,14.158203 4.7073474,14.050691 4.5002197,13.934143 4.3007812,13.808594 4.1013428,13.683045 3.9096741,13.54868 3.7246094,13.40625 3.5395447,13.26382 3.3608594,13.113234 3.1914062,12.955078 3.0219531,12.796922 2.8615881,12.629758 2.7089844,12.457031 2.5563806,12.284304 2.4118604,12.106064 2.2773438,11.919922 2.1428271,11.733779 2.0175354,11.5402 1.9023438,11.341797 1.7871521,11.143394 1.6825195,10.939977 1.5878906,10.730469 1.5405762,10.625715 1.4950667,10.519423 1.453125,10.412109 1.4111833,10.304796 1.3723517,10.195666 1.3359375,10.085938 1.2995233,9.9762087 1.265107,9.8659058 1.234375,9.7539062 1.203643,9.6419067 1.1772388,9.5281885 1.1523438,9.4140625 1.1274487,9.2999365 1.1048409,9.1844673 1.0859375,9.0683594 1.0670341,8.9522514 1.0518195,8.8347424 1.0390625,8.7167969 1.0263055,8.5988513 1.0162215,8.4809669 1.0097656,8.3613281 1.0033098,8.2416894 1,8.1211875 1,8 1,7.8788125 1.0033098,7.7583106 1.0097656,7.6386719 1.0162215,7.5190331 1.0263055,7.4011487 1.0390625,7.2832031 1.0518195,7.1652576 1.0670341,7.0477486 1.0859375,6.9316406 1.1048409,6.8155327 1.1274487,6.7000635 1.1523438,6.5859375 1.1772388,6.4718115 1.203643,6.3580933 1.234375,6.2460938 1.265107,6.1340942 1.2995233,6.0237913 1.3359375,5.9140625 1.3723517,5.8043337 1.4111833,5.6952042 1.453125,5.5878906 1.4950667,5.4805771 1.5405762,5.3742852 1.5878906,5.2695312 1.6825195,5.0600234 1.7871521,4.856606 1.9023438,4.6582031 2.0175354,4.4598003 2.1428271,4.2662207 2.2773438,4.0800781 2.4118604,3.8939355 2.5563806,3.7156958 2.7089844,3.5429688 2.8615881,3.3702417 3.0219531,3.2030781 3.1914062,3.0449219 3.3608594,2.8867656 3.5395447,2.7361802 3.7246094,2.59375 3.9096741,2.4513198 4.1013428,2.3169551 4.3007812,2.1914062 4.5002197,2.0658574 4.7073474,1.9493091 4.9199219,1.8417969 5.1324963,1.7342847 5.3516992,1.6371484 5.5761719,1.5488281 5.8006445,1.4605078 6.0304919,1.3824263 6.265625,1.3144531 6.5007581,1.24648 6.7398193,1.1890488 6.984375,1.1425781 7.2289307,1.0961074 7.4777283,1.0589692 7.7304688,1.0351562 7.856839,1.0232498 7.9850969,1.0157911 8.1132812,1.0097656 8.2414656,1.0037402 8.3701563,1 8.5,1 Z"
       transform="translate(0,1036.3622)" />
    <circle
       style="opacity:0.99;fill:#000000;stroke-width:2.4345"
       id="path1619"
       cx="8"
       cy="1044.3622"
       r="5" />
  </g>
</svg>
