/* XPM */
static char *bottom_left_inactive[] = {
/* columns rows colors chars-per-pixel */
"24 24 2 1 ",
"  c None",
". c #2F2F2F",
/* pixels */
"...                     ",
"...                     ",
"...                     ",
"...                     ",
"...                     ",
"...                     ",
"...                     ",
"...                     ",
"...                     ",
"...                     ",
"...                     ",
"...                     ",
"...                     ",
"...                     ",
"...                     ",
"...                     ",
"...                     ",
"...                     ",
"...                     ",
"...                     ",
"...                     ",
"........................",
"........................",
"........................"
};
