/* XPM */
static char *close_inactive[] = {
/* columns rows colors chars-per-pixel */
"34 26 23 1 ",
"  c #292B2E",
". c #2A2C2F",
"X c #2A2C30",
"o c #2A2D30",
"O c #2B2D30",
"+ c #2B2D31",
"@ c #2E3134",
"# c #2F3235",
"$ c #2F3335",
"% c #303335",
"& c #313438",
"* c #313538",
"= c #333539",
"- c #333639",
"; c #33373B",
": c #34383B",
"> c #35393C",
", c #5C646C",
"< c #5D646D",
"1 c #606770",
"2 c #818C9A",
"3 c #828D9B",
"4 c #9CAABB",
/* pixels */
"            o@*=;;=&@o            ",
"          +*::::::::::*+          ",
"         %::::::::::::::%         ",
"       .*::::::::::::::::&.       ",
"       *::::::::::::::::::&       ",
"      %::::::::::::::::::::$      ",
"     O::::::::::::::::::::::+     ",
"     *::::::::::::::::::::::&     ",
"    X::::::::>::::::>::::::::o    ",
"    @:::::::>3<::::<3>:::::::@    ",
"    &::::::::,41::,41::::::::&    ",
"    -:::::::::,41,41:::::::::=    ",
"    ;::::::::::<44<::::::::::;    ",
"    ;::::::::::<44<::::::::::;    ",
"    =:::::::::,41,41:::::::::=    ",
"    &::::::::,41::,41::::::::&    ",
"    @:::::::>2<::::<3>:::::::@    ",
"    X::::::::>::::::>::::::::X    ",
"     &::::::::::::::::::::::&     ",
"     O::::::::::::::::::::::+     ",
"      %::::::::::::::::::::#      ",
"       &::::::::::::::::::&       ",
"       .&::::::::::::::::&.       ",
"         %::::::::::::::#         ",
"          O&::::::::::&O          ",
"            X@&=;;=&@X            "
};
