/* XPM */
static char *close_inactive[] = {
/* columns rows colors chars-per-pixel */
"34 26 16 1 ",
"  c gray14",
". c #252525",
"X c gray15",
"o c #272727",
"O c gray17",
"+ c #2D2D2D",
"@ c gray18",
"# c #2F2F2F",
"$ c #313131",
"% c gray20",
"& c #343434",
"* c #686868",
"= c #6C6C6C",
"- c #989898",
"; c gray60",
": c #BCBCBC",
/* pixels */
"            XO#$%%$#OX            ",
"          o#%%%%%%%%%%#o          ",
"         +%%%%%%%%%%%%%%+         ",
"       .#%%%%%%%%%%%%%%%%#.       ",
"       #%%%%%%%%%%%%%%%%%%#       ",
"      +%%%%%%%%%%%%%%%%%%%%+      ",
"     o%%%%%%%%%%%%%%%%%%%%%%o     ",
"     #%%%%%%%%%%%%%%%%%%%%%%#     ",
"    X%%%%%%%%&%%%%%%&%%%%%%%%X    ",
"    O%%%%%%%&-*%%%%*-&%%%%%%%O    ",
"    #%%%%%%%%*:=%%*:=%%%%%%%%#    ",
"    $%%%%%%%%%*:=*:=%%%%%%%%%$    ",
"    %%%%%%%%%%%*::*%%%%%%%%%%%    ",
"    %%%%%%%%%%%*::*%%%%%%%%%%%    ",
"    $%%%%%%%%%*:=*:=%%%%%%%%%$    ",
"    #%%%%%%%%*:=%%*:=%%%%%%%%#    ",
"    O%%%%%%%&;*%%%%*-&%%%%%%%O    ",
"    X%%%%%%%%&%%%%%%&%%%%%%%%X    ",
"     #%%%%%%%%%%%%%%%%%%%%%%#     ",
"     o%%%%%%%%%%%%%%%%%%%%%%o     ",
"      +%%%%%%%%%%%%%%%%%%%%+      ",
"       #%%%%%%%%%%%%%%%%%%#       ",
"       .#%%%%%%%%%%%%%%%%#.       ",
"         +%%%%%%%%%%%%%%+         ",
"          X@%%%%%%%%%%#o          ",
"            XO#$%%$#OX            "
};
