/* XPM */
static char *close_prelight[] = {
/* columns rows colors chars-per-pixel */
"30 30 31 1 ",
"  c #1F2123",
". c #202224",
"X c #232528",
"o c #232628",
"O c #242628",
"+ c #25272A",
"@ c #25282A",
"# c #282B2C",
"$ c #292B2C",
"% c #292A2D",
"& c #292B2D",
"* c #292B2E",
"= c #292C2E",
"- c #292C2F",
"; c #2A2C2F",
": c #2C2E31",
"> c #2C2F31",
", c #2F3133",
"< c #2F3233",
"1 c #2F3134",
"2 c #303336",
"3 c #313437",
"4 c #323538",
"5 c #333639",
"6 c #35383B",
"7 c #787E84",
"8 c #797F85",
"9 c #7D838A",
"0 c #B7BFC8",
"q c #B7C0C9",
"w c #E5EFFA",
/* pixels */
"          O;135531;o          ",
"       .%355555555553#.       ",
"      @2555555555555552@      ",
"     %555555555555555555=     ",
"    >55555555555555555555:    ",
"   *5555555555555555555555*   ",
"  @555555555555555555555555@  ",
" .25555555555555555555555552. ",
" %55555555555555555555555555# ",
" 3555555555555555555555555553 ",
"O5555555555655555565555555555o",
";5555555556q855558q6555555555-",
"155555555557w9557w95555555555,",
"3555555555557w97w9555555555553",
"45555555555558ww85555555555554",
"45555555555558ww85555555555554",
"3555555555557w97w9555555555553",
"155555555557w9557w95555555555,",
";55555555560855558q6555555555=",
"o5555555555655555565555555555X",
" 3555555555555555555555555553 ",
" $55555555555555555555555555# ",
" .25555555555555555555555552. ",
"  @555555555555555555555555+  ",
"   *5555555555555555555555&   ",
"    :55555555555555555555:    ",
"     %555555555555555555=     ",
"      @2555555555555552+      ",
"       .#355555555553#.       ",
"          o-<3443,=X          "
};
