/* XPM */
static char *close_pressed[] = {
/* columns rows colors chars-per-pixel */
"34 26 22 1 ",
"  c #2F2F2F",
". c gray19",
"X c gray20",
"o c gray21",
"O c #373737",
"+ c #393939",
"@ c gray27",
"# c gray28",
"$ c gray29",
"% c #4B4B4B",
"& c gray32",
"* c #535353",
"= c #585858",
"- c gray37",
"; c #5F5F5F",
": c #606060",
"> c gray61",
", c #9D9D9D",
"< c gray63",
"1 c gray83",
"2 c #D5D5D5",
"3 c #FDFDFD",
/* pixels */
"            O#*=--=*#O            ",
"          +*;;;;;;;;;;*+          ",
"        .%;;;;;;;;;;;;;;%.        ",
"       X*;;;;;;;;;;;;;;;;*X       ",
"      .*;;;;;;;;;;;;;;;;;;*.      ",
"      %;;;;;;;;;;;;;;;;;;;;$      ",
"     +;;;;;;;;;;;;;;;;;;;;;;+     ",
"     *;;;;;;;;;;;;;;;;;;;;;;*     ",
"    O;;;;;;;;:;;;;;;:;;;;;;;;O    ",
"    #;;;;;;;:2,;;;;,2:;;;;;;;@    ",
"    *;;;;;;;;>3<;;>3<;;;;;;;;*    ",
"    =;;;;;;;;;>3<>3<;;;;;;;;;=    ",
"    -;;;;;;;;;;,33,;;;;;;;;;;-    ",
"    -;;;;;;;;;;,33,;;;;;;;;;;-    ",
"    =;;;;;;;;;>3<>3<;;;;;;;;;=    ",
"    *;;;;;;;;>3<;;>3<;;;;;;;;*    ",
"    #;;;;;;;:1,;;;;,2:;;;;;;;@    ",
"    o;;;;;;;;:;;;;;;:;;;;;;;;O    ",
"     *;;;;;;;;;;;;;;;;;;;;;;*     ",
"     +;;;;;;;;;;;;;;;;;;;;;;+     ",
"      %;;;;;;;;;;;;;;;;;;;;$      ",
"       &;;;;;;;;;;;;;;;;;;*.      ",
"       X*;;;;;;;;;;;;;;;;*X       ",
"        .%;;;;;;;;;;;;;;$.        ",
"          O&;;;;;;;;;;*+          ",
"            O@*=--=*@o            "
};
