/* XPM */
static char *close_pressed[] = {
/* columns rows colors chars-per-pixel */
"34 26 32 1 ",
"  c gray15",
". c #272727",
"X c #282828",
"o c #2A2A2A",
"O c gray17",
"+ c #2C2C2C",
"@ c #2D2D2D",
"# c #343434",
"$ c #353535",
"% c gray22",
"& c #393939",
"* c #3E3E3E",
"= c #414141",
"- c gray27",
"; c #464646",
": c gray28",
"> c #484848",
", c #494949",
"< c gray29",
"1 c #4B4B4B",
"2 c #4C4C4C",
"3 c gray30",
"4 c #4E4E4E",
"5 c gray31",
"6 c #505050",
"7 c #515151",
"8 c gray32",
"9 c #848484",
"0 c gray52",
"q c #888888",
"w c gray70",
"e c gray83",
/* pixels */
"            O$*=--=*$O            ",
"          @*:,347743,:*+          ",
"        .&;167777777782;&.        ",
"       X*,57777777777775,*X       ",
"      .*<7777777777777777,*.      ",
"      &>777777777777777777,%      ",
"     @;57777777777777777776;+     ",
"     *1777777777777777777771*     ",
"    O:7777777877777787777777;O    ",
"    $<7777778w077770w8777777,#    ",
"    *377777779eq779eq77777773*    ",
"    =5777777779eq9eq777777774=    ",
"    -57777777770ee07777777775-    ",
"    -57777777770ee07777777775-    ",
"    =4777777779eq9eq777777774=    ",
"    *377777779eq779eq77777772*    ",
"    $,7777778w077770w8777777<#    ",
"    O:7777777877777787777777;o    ",
"     *1777777777777777777771*     ",
"     +;57777777777777777776;+     ",
"      &,777777777777777777,%      ",
"      .*,7777777777777777,*.      ",
"       X*,57777777777776>*X       ",
"        .&;<77777777771;%.        ",
"          +*;,345543<;*+          ",
"            O#*=--=*#o            "
};
