/* XPM */
static char *close_pressed[] = {
/* columns rows colors chars-per-pixel */
"30 30 37 1 ",
"  c #1F2123",
". c #202224",
"X c #26282A",
"o c #26282B",
"O c #26292B",
"+ c #27292B",
"@ c #292B2C",
"# c #292A2D",
"$ c #292B2D",
"% c #2D2F32",
"& c #2D3032",
"* c #2D3033",
"= c #2E3133",
"- c #2F3133",
"; c #2F3034",
": c #2F3135",
"> c #2F3235",
", c #303134",
"< c #323538",
"1 c #333538",
"2 c #333539",
"3 c #36393C",
"4 c #36393D",
"5 c #3A3C3F",
"6 c #3A3D3F",
"7 c #3A3D40",
"8 c #3B3D41",
"9 c #3B3E40",
"0 c #3D3F43",
"q c #3D4044",
"w c #3F4145",
"e c #7F848B",
"r c #7F858C",
"t c #838990",
"y c #B9C2CB",
"u c #BAC3CC",
"i c #E5EFFA",
/* pixels */
"          O>480084>o          ",
"       .*8qqqqqqqqqq8%.       ",
"      $7qqqqqqqqqqqqqq7#      ",
"     *qqqqqqqqqqqqqqqqqq,     ",
"    2qqqqqqqqqqqqqqqqqqqq1    ",
"   ;qqqqqqqqqqqqqqqqqqqqqq-   ",
"  $qqqqqqqqqqqqqqqqqqqqqqqq#  ",
" .7qqqqqqqqqqqqqqqqqqqqqqqq6. ",
" *qqqqqqqqqqqqqqqqqqqqqqqqqq% ",
" 8qqqqqqqqqqqqqqqqqqqqqqqqqq9 ",
"+qqqqqqqqqqwqqqqqqwqqqqqqqqqqo",
">qqqqqqqqqwurqqqqruwqqqqqqqqq:",
"4qqqqqqqqqqeitqqeitqqqqqqqqqq3",
"8qqqqqqqqqqqeiteitqqqqqqqqqqq8",
"0qqqqqqqqqqqqriirqqqqqqqqqqqq0",
"0qqqqqqqqqqqqriirqqqqqqqqqqqq0",
"8qqqqqqqqqqqeiteitqqqqqqqqqqq8",
"4qqqqqqqqqqeitqqeitqqqqqqqqqq3",
">qqqqqqqqqwyrqqqqruwqqqqqqqqq,",
"oqqqqqqqqqqwqqqqqqwqqqqqqqqqqX",
" 8qqqqqqqqqqqqqqqqqqqqqqqqqq9 ",
" &qqqqqqqqqqqqqqqqqqqqqqqqqq% ",
" .6qqqqqqqqqqqqqqqqqqqqqqqq5. ",
"  #qqqqqqqqqqqqqqqqqqqqqqqq@  ",
"   -qqqqqqqqqqqqqqqqqqqqqq=   ",
"    1qqqqqqqqqqqqqqqqqqqq<    ",
"     *qqqqqqqqqqqqqqqqqq,     ",
"      #6qqqqqqqqqqqqqq5@      ",
"       .%9qqqqqqqqqq9%.       ",
"          o:380083,o          "
};
