/* XPM */
static char *close_pressed[] = {
/* columns rows colors chars-per-pixel */
"34 34 22 1 ",
"  c #34393F",
". c #353A40",
"X c #363B42",
"o c #363C42",
"O c #3E434A",
"+ c #3E434B",
"@ c #3E444B",
"# c #464C55",
"$ c #464D55",
"% c #474D55",
"& c #474E55",
"* c #4A5159",
"= c #4B5159",
"- c #4B5259",
"; c #4B535B",
": c #4C545C",
"> c #7E8A98",
", c #7E8B99",
"< c #818E9D",
"1 c #ACBCCF",
"2 c #ADBDD0",
"3 c #CEE0F7",
/* pixels */
"  .@$-;;;;;;;;;;;;;;;;;;;;;;-$+.  ",
" o&;;;;;;;;;;;;;;;;;;;;;;;;;;;;&o ",
".&;;;;;;;;;;;;;;;;;;;;;;;;;;;;;;%.",
"@;;;;;;;;;;;;;;;;;;;;;;;;;;;;;;;;+",
"$;;;;;;;;;;;;;;;;;;;;;;;;;;;;;;;;$",
"=;;;;;;;;;;;;;;;;;;;;;;;;;;;;;;;;=",
";;;;;;;;;;;;;;;;;;;;;;;;;;;;;;;;;;",
";;;;;;;;;;;;;;;;;;;;;;;;;;;;;;;;;;",
";;;;;;;;;;;;;;;;;;;;;;;;;;;;;;;;;;",
";;;;;;;;;;;;;;;;;;;;;;;;;;;;;;;;;;",
";;;;;;;;;;;;;;;;;;;;;;;;;;;;;;;;;;",
";;;;;;;;;;;;;;;;;;;;;;;;;;;;;;;;;;",
";;;;;;;;;;;;;:;;;;;;:;;;;;;;;;;;;;",
";;;;;;;;;;;;:2,;;;;,2:;;;;;;;;;;;;",
";;;;;;;;;;;;;>3<;;>3<;;;;;;;;;;;;;",
";;;;;;;;;;;;;;>3<>3<;;;;;;;;;;;;;;",
";;;;;;;;;;;;;;;,33,;;;;;;;;;;;;;;;",
";;;;;;;;;;;;;;;,33,;;;;;;;;;;;;;;;",
";;;;;;;;;;;;;;>3<>3<;;;;;;;;;;;;;;",
";;;;;;;;;;;;;>3<;;>3<;;;;;;;;;;;;;",
";;;;;;;;;;;;:1,;;;;,2:;;;;;;;;;;;;",
";;;;;;;;;;;;;:;;;;;;:;;;;;;;;;;;;;",
";;;;;;;;;;;;;;;;;;;;;;;;;;;;;;;;;;",
";;;;;;;;;;;;;;;;;;;;;;;;;;;;;;;;;;",
";;;;;;;;;;;;;;;;;;;;;;;;;;;;;;;;;;",
";;;;;;;;;;;;;;;;;;;;;;;;;;;;;;;;;;",
";;;;;;;;;;;;;;;;;;;;;;;;;;;;;;;;;;",
";;;;;;;;;;;;;;;;;;;;;;;;;;;;;;;;;;",
"=;;;;;;;;;;;;;;;;;;;;;;;;;;;;;;;;*",
"$;;;;;;;;;;;;;;;;;;;;;;;;;;;;;;;;#",
"@;;;;;;;;;;;;;;;;;;;;;;;;;;;;;;;;O",
".&;;;;;;;;;;;;;;;;;;;;;;;;;;;;;;%.",
" o%;;;;;;;;;;;;;;;;;;;;;;;;;;;;%X ",
"  .+#=;;;;;;;;;;;;;;;;;;;;;;=#O.  "
};
