/* XPM */
static char *close_active[] = {
/* columns rows colors chars-per-pixel */
"34 26 27 1 ",
"  c gray15",
". c #272727",
"X c #282828",
"o c #2A2A2A",
"O c gray17",
"+ c #2C2C2C",
"@ c #2D2D2D",
"# c #343434",
"$ c #353535",
"% c gray22",
"& c #393939",
"* c #3A3A3A",
"= c gray23",
"- c #3C3C3C",
"; c gray24",
": c #3E3E3E",
"> c gray25",
", c #414141",
"< c gray26",
"1 c #444444",
"2 c gray27",
"3 c gray46",
"4 c #767676",
"5 c gray48",
"6 c #ACACAC",
"7 c gray68",
"8 c gray83",
/* pixels */
"            O$:,22,:$O            ",
"          @:2>;====;>2:+          ",
"        .&2;&&&&&&&&&=:2&.        ",
"       X:<*&&&&&&&&&&&&*<:X       ",
"      .:>*&&&&&&&&&&&&&&*>:.      ",
"      &,&&&&&&&&&&&&&&&&&*<%      ",
"     @2*&&&&&&&&&&&&&&&&&&=2+     ",
"     ::&&&&&&&&&&&&&&&&&&&&;:     ",
"    O2&&&&&&&=&&&&&&=&&&&&&*2O    ",
"    $>&&&&&&=74&&&&47=&&&&&&>#    ",
"    :;&&&&&&&385&&385&&&&&&&-:    ",
"    ,-&&&&&&&&385385&&&&&&&&=,    ",
"    2*&&&&&&&&&4884&&&&&&&&&*2    ",
"    2*&&&&&&&&&4884&&&&&&&&&*2    ",
"    ,=&&&&&&&&385385&&&&&&&&=,    ",
"    :-&&&&&&&385&&385&&&&&&&-:    ",
"    $>&&&&&&=64&&&&47=&&&&&&,#    ",
"    O2*&&&&&&=&&&&&&=&&&&&&*2o    ",
"     :;&&&&&&&&&&&&&&&&&&&&;:     ",
"     +2*&&&&&&&&&&&&&&&&&&=1+     ",
"      &<&&&&&&&&&&&&&&&&&*<%      ",
"      .:>&&&&&&&&&&&&&&&&>:.      ",
"       X:<*&&&&&&&&&&&&=,:X       ",
"        .&1;*&&&&&&&&*;2%.        ",
"          +:2>-=**=-,2:+          ",
"            O#:,22,:#o            "
};
