/* XPM */
static char *close_prelight[] = {
/* columns rows colors chars-per-pixel */
"34 34 18 1 ",
"  c #34393F",
". c #343A40",
"X c #353A40",
"o c #353A41",
"O c #3A4047",
"+ c #3B4047",
"@ c #40464D",
"# c #40464E",
"$ c #40474E",
"% c #424951",
"& c #434952",
"* c #444A53",
"= c #798492",
"- c #798593",
"; c #7C8897",
": c #AAB9CD",
"> c #ABBACE",
", c #CEE0F7",
/* pixels */
"  X+#%&&&&&&&&&&&&&&&&&&&&&&%#O.  ",
" o$&&&&&&&&&&&&&&&&&&&&&&&&&&&&$o ",
"X$&&&&&&&&&&&&&&&&&&&&&&&&&&&&&&$.",
"+&&&&&&&&&&&&&&&&&&&&&&&&&&&&&&&&O",
"#&&&&&&&&&&&&&&&&&&&&&&&&&&&&&&&&#",
"%&&&&&&&&&&&&&&&&&&&&&&&&&&&&&&&&%",
"&&&&&&&&&&&&&&&&&&&&&&&&&&&&&&&&&&",
"&&&&&&&&&&&&&&&&&&&&&&&&&&&&&&&&&&",
"&&&&&&&&&&&&&&&&&&&&&&&&&&&&&&&&&&",
"&&&&&&&&&&&&&&&&&&&&&&&&&&&&&&&&&&",
"&&&&&&&&&&&&&&&&&&&&&&&&&&&&&&&&&&",
"&&&&&&&&&&&&&&&&&&&&&&&&&&&&&&&&&&",
"&&&&&&&&&&&&&*&&&&&&*&&&&&&&&&&&&&",
"&&&&&&&&&&&&*>-&&&&->*&&&&&&&&&&&&",
"&&&&&&&&&&&&&=,;&&=,;&&&&&&&&&&&&&",
"&&&&&&&&&&&&&&=,;=,;&&&&&&&&&&&&&&",
"&&&&&&&&&&&&&&&-,,-&&&&&&&&&&&&&&&",
"&&&&&&&&&&&&&&&-,,-&&&&&&&&&&&&&&&",
"&&&&&&&&&&&&&&=,;=,;&&&&&&&&&&&&&&",
"&&&&&&&&&&&&&=,;&&=,;&&&&&&&&&&&&&",
"&&&&&&&&&&&&*:-&&&&->*&&&&&&&&&&&&",
"&&&&&&&&&&&&&*&&&&&&*&&&&&&&&&&&&&",
"&&&&&&&&&&&&&&&&&&&&&&&&&&&&&&&&&&",
"&&&&&&&&&&&&&&&&&&&&&&&&&&&&&&&&&&",
"&&&&&&&&&&&&&&&&&&&&&&&&&&&&&&&&&&",
"&&&&&&&&&&&&&&&&&&&&&&&&&&&&&&&&&&",
"&&&&&&&&&&&&&&&&&&&&&&&&&&&&&&&&&&",
"&&&&&&&&&&&&&&&&&&&&&&&&&&&&&&&&&&",
"%&&&&&&&&&&&&&&&&&&&&&&&&&&&&&&&&%",
"#&&&&&&&&&&&&&&&&&&&&&&&&&&&&&&&&@",
"+&&&&&&&&&&&&&&&&&&&&&&&&&&&&&&&&O",
"X$&&&&&&&&&&&&&&&&&&&&&&&&&&&&&&$.",
" o$&&&&&&&&&&&&&&&&&&&&&&&&&&&&$o ",
"  .O@%&&&&&&&&&&&&&&&&&&&&&&%@O.  "
};
