/* XPM */
static char *hide_pressed[] = {
/* columns rows colors chars-per-pixel */
"34 34 16 1 ",
"  c #34393F",
". c #353A40",
"X c #363B42",
"o c #363C42",
"O c #3E434A",
"+ c #3E434B",
"@ c #3E444B",
"# c #464C55",
"$ c #464D55",
"% c #474D55",
"& c #474E55",
"* c #4A5159",
"= c #4B5159",
"- c #4B5259",
"; c #4B535B",
": c #CFE2F9",
/* pixels */
"  .@$-;;;;;;;;;;;;;;;;;;;;;;-$+.  ",
" o&;;;;;;;;;;;;;;;;;;;;;;;;;;;;&o ",
".&;;;;;;;;;;;;;;;;;;;;;;;;;;;;;;%.",
"@;;;;;;;;;;;;;;;;;;;;;;;;;;;;;;;;+",
"$;;;;;;;;;;;;;;;;;;;;;;;;;;;;;;;;$",
"=;;;;;;;;;;;;;;;;;;;;;;;;;;;;;;;;=",
";;;;;;;;;;;;;;;;;;;;;;;;;;;;;;;;;;",
";;;;;;;;;;;;;;;;;;;;;;;;;;;;;;;;;;",
";;;;;;;;;;;;;;;;;;;;;;;;;;;;;;;;;;",
";;;;;;;;;;;;;;;;;;;;;;;;;;;;;;;;;;",
";;;;;;;;;;;;;;;;;;;;;;;;;;;;;;;;;;",
";;;;;;;;;;;;;;;;;;;;;;;;;;;;;;;;;;",
";;;;;;;;;;;;;;;;;;;;;;;;;;;;;;;;;;",
";;;;;;;;;;;;;;;;;;;;;;;;;;;;;;;;;;",
";;;;;;;;;;;;;;;;;;;;;;;;;;;;;;;;;;",
";;;;;;;;;;;;;;;;;;;;;;;;;;;;;;;;;;",
";;;;;;;;;;;;;;;;;;;;;;;;;;;;;;;;;;",
";;;;;;;;;;;;;;;;;;;;;;;;;;;;;;;;;;",
";;;;;;;;;;;;;;;;;;;;;;;;;;;;;;;;;;",
";;;;;;;;;;;;;::::::::;;;;;;;;;;;;;",
";;;;;;;;;;;;;;;;;;;;;;;;;;;;;;;;;;",
";;;;;;;;;;;;;;;;;;;;;;;;;;;;;;;;;;",
";;;;;;;;;;;;;;;;;;;;;;;;;;;;;;;;;;",
";;;;;;;;;;;;;;;;;;;;;;;;;;;;;;;;;;",
";;;;;;;;;;;;;;;;;;;;;;;;;;;;;;;;;;",
";;;;;;;;;;;;;;;;;;;;;;;;;;;;;;;;;;",
";;;;;;;;;;;;;;;;;;;;;;;;;;;;;;;;;;",
";;;;;;;;;;;;;;;;;;;;;;;;;;;;;;;;;;",
"=;;;;;;;;;;;;;;;;;;;;;;;;;;;;;;;;*",
"$;;;;;;;;;;;;;;;;;;;;;;;;;;;;;;;;#",
"@;;;;;;;;;;;;;;;;;;;;;;;;;;;;;;;;O",
".&;;;;;;;;;;;;;;;;;;;;;;;;;;;;;;%.",
" o%;;;;;;;;;;;;;;;;;;;;;;;;;;;;%X ",
"  .+#=;;;;;;;;;;;;;;;;;;;;;;=#O.  "
};
