/* XPM */
static char *maximize_pressed[] = {
/* columns rows colors chars-per-pixel */
"30 30 21 1 ",
"  c #2C2E30",
". c #2D2F31",
"X c #333536",
"o c #333537",
"O c #353739",
"+ c #36383A",
"@ c #3A3C3E",
"# c #3B3D3F",
"$ c #3C3E3F",
"% c #3D3E40",
"& c #3D3F41",
"* c #404243",
"= c #414244",
"- c #444648",
"; c #454748",
": c #47494B",
"> c #484A4C",
", c #494B4C",
"< c #4B4C4E",
"1 c #4B4D4F",
"2 c white",
/* pixels */
"          o&;,<<,;&o          ",
"       .#,1111111111,@.       ",
"      +>11111111111111>+      ",
"     #111111111111111111%     ",
"    =11111111111111111111*    ",
"   %1111111111111111111111$   ",
"  +111111111111111111111111+  ",
" .>111111111111111111111111:. ",
" #11111111111111111111111111@ ",
" ,11111111111111111111111111> ",
"o1111111111111111111111111111o",
"&1111111111222222221111111111&",
";1111111111211111121111111111-",
",1111111111211111121111111111,",
"<1111111111211111121111111111<",
"<1111111111211111121111111111<",
",1111111111211111121111111111,",
";1111111111211111121111111111-",
"&1111111111222222221111111111%",
"o1111111111111111111111111111X",
" ,11111111111111111111111111> ",
" @11111111111111111111111111@ ",
" .:111111111111111111111111:. ",
"  +111111111111111111111111O  ",
"   $1111111111111111111111$   ",
"    *11111111111111111111*    ",
"     #111111111111111111%     ",
"      +:11111111111111:O      ",
"       .@>1111111111>@.       ",
"          o&-,<<,-%o          "
};
