/* XPM */
static char *maximize_pressed[] = {
/* columns rows colors chars-per-pixel */
"34 26 30 1 ",
"  c #333638",
". c #333739",
"X c #36393C",
"o c #383C3F",
"O c #393C40",
"+ c #3B3D41",
"@ c #393E40",
"# c #3A3E41",
"$ c #3B3E41",
"% c #3A3E42",
"& c #44494D",
"* c #45494D",
"= c #44494E",
"- c #444A4E",
"; c #474D52",
": c #484D52",
"> c #494E52",
", c #4D5259",
"< c #4D5359",
"1 c #4D5459",
"2 c #4E5459",
"3 c #4E545A",
"4 c #52585E",
"5 c #52595E",
"6 c #53595F",
"7 c #555C63",
"8 c #565C63",
"9 c #565D63",
"0 c #575E66",
"q c #CFE2F9",
/* pixels */
"            O&259952&O            ",
"          %300000000002#          ",
"        .>00000000000000:.        ",
"       X300000000000000002X       ",
"      .20000000000000000002.      ",
"      >00000000000000000000:      ",
"     +0000000000000000000000#     ",
"     200000000000000000000002     ",
"    o000000000000000000000000O    ",
"    *00000000qqqqqqqq00000000-    ",
"    200000000q000000q000000002    ",
"    600000000q000000q000000005    ",
"    800000000q000000q000000008    ",
"    700000000q000000q000000007    ",
"    500000000q000000q000000005    ",
"    200000000q000000q000000001    ",
"    &00000000qqqqqqqq00000000=    ",
"    o000000000000000000000000o    ",
"     200000000000000000000001     ",
"     +0000000000000000000000$     ",
"      :00000000000000000000;      ",
"       <0000000000000000002.      ",
"       X200000000000000002X       ",
"        .:00000000000000;.        ",
"          @,00000000002$          ",
"            o-258841=o            "
};
