/* XPM */
static char *maximize_pressed[] = {
/* columns rows colors chars-per-pixel */
"34 26 16 1 ",
"  c #2F2F2F",
". c gray19",
"X c gray20",
"o c gray21",
"O c #373737",
"+ c #393939",
"@ c gray27",
"# c gray28",
"$ c gray29",
"% c #4B4B4B",
"& c gray32",
"* c #535353",
"= c #585858",
"- c gray37",
"; c #5F5F5F",
": c white",
/* pixels */
"            O#*=--=*#O            ",
"          +*;;;;;;;;;;*+          ",
"        .%;;;;;;;;;;;;;;%.        ",
"       X*;;;;;;;;;;;;;;;;*X       ",
"      .*;;;;;;;;;;;;;;;;;;*.      ",
"      %;;;;;;;;;;;;;;;;;;;;$      ",
"     +;;;;;;;;;;;;;;;;;;;;;;+     ",
"     *;;;;;;;;;;;;;;;;;;;;;;*     ",
"    O;;;;;;;;;;;;;;;;;;;;;;;;O    ",
"    #;;;;;;;;::::::::;;;;;;;;@    ",
"    *;;;;;;;;:;;;;;;:;;;;;;;;*    ",
"    =;;;;;;;;:;;;;;;:;;;;;;;;=    ",
"    -;;;;;;;;:;;;;;;:;;;;;;;;-    ",
"    -;;;;;;;;:;;;;;;:;;;;;;;;-    ",
"    =;;;;;;;;:;;;;;;:;;;;;;;;=    ",
"    *;;;;;;;;:;;;;;;:;;;;;;;;*    ",
"    #;;;;;;;;::::::::;;;;;;;;@    ",
"    o;;;;;;;;;;;;;;;;;;;;;;;;O    ",
"     *;;;;;;;;;;;;;;;;;;;;;;*     ",
"     +;;;;;;;;;;;;;;;;;;;;;;+     ",
"      %;;;;;;;;;;;;;;;;;;;;$      ",
"       &;;;;;;;;;;;;;;;;;;*.      ",
"       X*;;;;;;;;;;;;;;;;*X       ",
"        .%;;;;;;;;;;;;;;$.        ",
"          O&;;;;;;;;;;*+          ",
"            O@*=--=*@o            "
};
