/* XPM */
static char *maximize_prelight[] = {
/* columns rows colors chars-per-pixel */
"34 26 42 1 ",
"  c gray15",
". c #272727",
"X c #282828",
"o c #2A2A2A",
"O c gray17",
"+ c #2C2C2C",
"@ c #2D2D2D",
"# c #343434",
"$ c #353535",
"% c gray22",
"& c #393939",
"* c gray23",
"= c #3C3C3C",
"- c #3E3E3E",
"; c #3F3F3F",
": c gray25",
"> c #414141",
", c #434343",
"< c gray27",
"1 c #484848",
"2 c #494949",
"3 c gray29",
"4 c #4E4E4E",
"5 c gray31",
"6 c #505050",
"7 c #515151",
"8 c gray32",
"9 c #535353",
"0 c #555555",
"q c #565656",
"w c #585858",
"e c gray35",
"r c #5A5A5A",
"t c gray36",
"y c gray37",
"u c #626262",
"i c gray39",
"p c #646464",
"a c #656565",
"s c gray40",
"d c #676767",
"f c gray84",
/* pixels */
"            O$-><<>-$O            ",
"          @-39yudduy93-+          ",
"        .&3epq1:**:1qse2&.        ",
"       X-6p8=&&&&&&&&=8p6-X       ",
"      .-9p,&&&&&&&&&&&&,p9-.      ",
"      &5i-&&&&&&&&&&&&&&-p6%      ",
"     @3p,&&&&&&&&&&&&&&&&,a2+     ",
"     -r7&&&&&&&&&&&&&&&&&&8w-     ",
"    O3p=&&&&&&&&&&&&&&&&&&=a3O    ",
"    $90&&&&&&ffffffff&&&&&&q9#    ",
"    -y1&&&&&&f&&&&&&f&&&&&&2t-    ",
"    >p:&&&&&&f&&&&&&f&&&&&&:u>    ",
"    <s*&&&&&&f&&&&&&f&&&&&&*s<    ",
"    <s*&&&&&&f&&&&&&f&&&&&&=a<    ",
"    >u>&&&&&&f&&&&&&f&&&&&&:u>    ",
"    -t1&&&&&&f&&&&&&f&&&&&&2t-    ",
"    $9q&&&&&&ffffffff&&&&&&q9#    ",
"    O3a=&&&&&&&&&&&&&&&&&&=a3o    ",
"     -w8&&&&&&&&&&&&&&&&&&9w-     ",
"     +2p,&&&&&&&&&&&&&&&&,a1+     ",
"      &6i-&&&&&&&&&&&&&&;p5%      ",
"      .-9i,&&&&&&&&&&&&,i8-.      ",
"       X-6p8=&&&&&&&&=9a4-X       ",
"        .&1waq1:**:2qaw2%.        ",
"          +-38tussut93-+          ",
"            O#-><<>-#o            "
};
