/* XPM */
static char *maximize_inactive[] = {
/* columns rows colors chars-per-pixel */
"34 26 24 1 ",
"  c gray19",
". c #313131",
"X c #323232",
"o c #343434",
"O c #353535",
"+ c gray21",
"@ c #393939",
"# c #3A3A3A",
"$ c gray23",
"% c gray24",
"& c #3E3E3E",
"* c #3F3F3F",
"= c gray25",
"- c #414141",
"; c gray26",
": c gray27",
"> c #464646",
", c gray28",
"< c #484848",
"1 c #494949",
"2 c gray29",
"3 c #4C4C4C",
"4 c gray30",
"5 c #A4A4A4",
/* pixels */
"            O*,2442,*O            ",
"          +,3>=%$$%=>3,+          ",
"        .;3-@@@@@@@@@$;3;.        ",
"       X,1$@@@@@@@@@@@@$1,X       ",
"      .,>#@@@@@@@@@@@@@@#>,.      ",
"      ;1@@@@@@@@@@@@@@@@@#1-      ",
"     +3$@@@@@@@@@@@@@@@@@@$3+     ",
"     ,;@@@@@@@@@@@@@@@@@@@@;,     ",
"    O3@@@@@@@@@@@@@@@@@@@@@#3O    ",
"    *>@@@@@@@55555555@@@@@@@>&    ",
"    ,=@@@@@@@5@@@@@@5@@@@@@@*,    ",
"    2%@@@@@@@5@@@@@@5@@@@@@@%2    ",
"    4$@@@@@@@5@@@@@@5@@@@@@@$4    ",
"    4$@@@@@@@5@@@@@@5@@@@@@@$4    ",
"    2%@@@@@@@5@@@@@@5@@@@@@@%2    ",
"    ,*@@@@@@@5@@@@@@5@@@@@@@*,    ",
"    *>@@@@@@@55555555@@@@@@@>&    ",
"    O3#@@@@@@@@@@@@@@@@@@@@#3o    ",
"     ,-@@@@@@@@@@@@@@@@@@@@-,     ",
"     +3$@@@@@@@@@@@@@@@@@@$3+     ",
"      ;1@@@@@@@@@@@@@@@@@#1-      ",
"      .,>@@@@@@@@@@@@@@@@:,.      ",
"       X,1$@@@@@@@@@@@@$<,X       ",
"        .;3-#@@@@@@@@#-3-.        ",
"          +,3:*%$$%*>3,+          ",
"            O&,2442,&o            "
};
