/* XPM */
static char *maximize_prelight[] = {
/* columns rows colors chars-per-pixel */
"34 26 19 1 ",
"  c #333638",
". c #35383C",
"X c #373A3E",
"o c #373C3E",
"O c #393C40",
"+ c #404549",
"@ c #40444A",
"# c #43484D",
"$ c #43494D",
"% c #45494D",
"& c #474B53",
"* c #474D53",
"= c #494D53",
"- c #484D55",
"; c #4C5057",
": c #4C5257",
"> c #4E545C",
", c #50565E",
"< c #CFE2F9",
/* pixels */
"            X@=:>>:=@X            ",
"          O-,,,,,,,,,,=O          ",
"         %,,,,,,,,,,,,,,$         ",
"       .-,,,,,,,,,,,,,,,,=.       ",
"       =,,,,,,,,,,,,,,,,,,=       ",
"      %,,,,,,,,,,,,,,,,,,,,#      ",
"     O,,,,,,,,,,,,,,,,,,,,,,O     ",
"     =,,,,,,,,,,,,,,,,,,,,,,=     ",
"    X,,,,,,,,,,,,,,,,,,,,,,,,X    ",
"    @,,,,,,,,<<<<<<<<,,,,,,,,+    ",
"    =,,,,,,,,<,,,,,,<,,,,,,,,=    ",
"    :,,,,,,,,<,,,,,,<,,,,,,,,:    ",
"    >,,,,,,,,<,,,,,,<,,,,,,,,>    ",
"    >,,,,,,,,<,,,,,,<,,,,,,,,>    ",
"    :,,,,,,,,<,,,,,,<,,,,,,,,:    ",
"    =,,,,,,,,<,,,,,,<,,,,,,,,=    ",
"    @,,,,,,,,<<<<<<<<,,,,,,,,+    ",
"    X,,,,,,,,,,,,,,,,,,,,,,,,X    ",
"     =,,,,,,,,,,,,,,,,,,,,,,=     ",
"     O,,,,,,,,,,,,,,,,,,,,,,O     ",
"      $,,,,,,,,,,,,,,,,,,,,#      ",
"       *,,,,,,,,,,,,,,,,,,=       ",
"       .=,,,,,,,,,,,,,,,,=.       ",
"         $,,,,,,,,,,,,,,#         ",
"          o&,,,,,,,,,,=O          ",
"            X+=:>>;=+X            "
};
