/* XPM */
static char *maximize_inactive[] = {
/* columns rows colors chars-per-pixel */
"34 26 17 1 ",
"  c #292B2E",
". c #2A2C2F",
"X c #2A2C30",
"o c #2A2D30",
"O c #2B2D30",
"+ c #2B2D31",
"@ c #2E3134",
"# c #2F3235",
"$ c #2F3335",
"% c #303335",
"& c #313438",
"* c #313538",
"= c #333539",
"- c #333639",
"; c #33373B",
": c #34383B",
"> c #9DABBC",
/* pixels */
"            o@*=;;=&@o            ",
"          +*::::::::::*+          ",
"         %::::::::::::::%         ",
"       .*::::::::::::::::&.       ",
"       *::::::::::::::::::&       ",
"      %::::::::::::::::::::$      ",
"     O::::::::::::::::::::::+     ",
"     *::::::::::::::::::::::&     ",
"    X::::::::::::::::::::::::o    ",
"    @::::::::>>>>>>>>::::::::@    ",
"    &::::::::>::::::>::::::::&    ",
"    -::::::::>::::::>::::::::=    ",
"    ;::::::::>::::::>::::::::;    ",
"    ;::::::::>::::::>::::::::;    ",
"    =::::::::>::::::>::::::::=    ",
"    &::::::::>::::::>::::::::&    ",
"    @::::::::>>>>>>>>::::::::@    ",
"    X::::::::::::::::::::::::X    ",
"     &::::::::::::::::::::::&     ",
"     O::::::::::::::::::::::+     ",
"      %::::::::::::::::::::#      ",
"       &::::::::::::::::::&       ",
"       .&::::::::::::::::&.       ",
"         %::::::::::::::#         ",
"          O&::::::::::&O          ",
"            X@&=;;=&@X            "
};
