/* XPM */
static char *top_left_active[] = {
/* columns rows colors chars-per-pixel */
"8 38 7 1 ",
"  c None",
". c #343537",
"X c #333539",
"o c #323638",
"O c #333638",
"+ c #323738",
"@ c #333639",
/* pixels */
"     .@O",
"   oOOOO",
"  +OOOOO",
" oOOOOOO",
" OOOOOOO",
"XOOOOOOO",
"OOOOOOOO",
"OOOOOOOO",
"OOOOOOOO",
"OOOOOOOO",
"OOOOOOOO",
"OOOOOOOO",
"OOOOOOOO",
"OOOOOOOO",
"OOOOOOOO",
"OOOOOOOO",
"OOOOOOOO",
"OOOOOOOO",
"OOOOOOOO",
"OOOOOOOO",
"OOOOOOOO",
"OOOOOOOO",
"OOOOOOOO",
"OOOOOOOO",
"OOOOOOOO",
"OOOOOOOO",
"OOOOOOOO",
"OOOOOOOO",
"OOOOOOOO",
"OOOOOOOO",
"OOOOOOOO",
"OOOOOOOO",
"OOOOOOOO",
"OOOOOOOO",
"OOOOOOOO",
"OOOOOOOO",
"OOOOOOOO",
"OOOOOOOO"
};
