/* XPM */
static char *top_right_active[] = {
/* columns rows colors chars-per-pixel */
"8 38 6 1 ",
"  c None",
". c #343537",
"X c #323638",
"o c #333638",
"O c #323738",
"+ c #333639",
/* pixels */
"o+.     ",
"ooooo   ",
"oooooO  ",
"ooooooo ",
"ooooooo ",
"oooooooX",
"oooooooo",
"oooooooo",
"oooooooo",
"oooooooo",
"oooooooo",
"oooooooo",
"oooooooo",
"oooooooo",
"oooooooo",
"oooooooo",
"oooooooo",
"oooooooo",
"oooooooo",
"oooooooo",
"oooooooo",
"oooooooo",
"oooooooo",
"oooooooo",
"oooooooo",
"oooooooo",
"oooooooo",
"oooooooo",
"oooooooo",
"oooooooo",
"oooooooo",
"oooooooo",
"oooooooo",
"oooooooo",
"oooooooo",
"oooooooo",
"oooooooo",
"oooooooo"
};
