/* XPM */
static char *top_left_inactive[] = {
/* columns rows colors chars-per-pixel */
"4 38 3 1 ",
"  c #27282C",
". c #27292C",
"X c None",
/* pixels */
"XXXX",
"XX .",
"X ..",
"X...",
"....",
"....",
"....",
"....",
"....",
"....",
"....",
"....",
"....",
"....",
"....",
"....",
"....",
"....",
"....",
"....",
"....",
"....",
"....",
"....",
"....",
"....",
"....",
"....",
"....",
"....",
"....",
"....",
"....",
"....",
"....",
"....",
"....",
"...."
};
