/* XPM */
static char *top_right_inactive[] = {
/* columns rows colors chars-per-pixel */
"8 38 3 1 ",
"  c None",
". c #2F2F2F",
"X c gray19",
/* pixels */
"XXX     ",
"XXXX.   ",
"XXXXXX  ",
"XXXXXX. ",
"XXXXXXX ",
"XXXXXXXX",
"XXXXXXXX",
"XXXXXXXX",
"XXXXXXXX",
"XXXXXXXX",
"XXXXXXXX",
"XXXXXXXX",
"XXXXXXXX",
"XXXXXXXX",
"XXXXXXXX",
"XXXXXXXX",
"XXXXXXXX",
"XXXXXXXX",
"XXXXXXXX",
"XXXXXXXX",
"XXXXXXXX",
"XXXXXXXX",
"XXXXXXXX",
"XXXXXXXX",
"XXXXXXXX",
"XXXXXXXX",
"XXXXXXXX",
"XXXXXXXX",
"XXXXXXXX",
"XXXXXXXX",
"XXXXXXXX",
"XXXXXXXX",
"XXXXXXXX",
"XXXXXXXX",
"XXXXXXXX",
"XXXXXXXX",
"XXXXXXXX",
"XXXXXXXX"
};
