/* XPM */
static char *top_right_active[] = {
/* columns rows colors chars-per-pixel */
"4 38 3 1 ",
"  c #1F2122",
". c #1F2123",
"X c None",
/* pixels */
"XXXX",
". XX",
"...X",
"...X",
"....",
"....",
"....",
"....",
"....",
"....",
"....",
"....",
"....",
"....",
"....",
"....",
"....",
"....",
"....",
"....",
"....",
"....",
"....",
"....",
"....",
"....",
"....",
"....",
"....",
"....",
"....",
"....",
"....",
"....",
"....",
"....",
"....",
"...."
};
