/* XPM */
static char *top_right_inactive[] = {
/* columns rows colors chars-per-pixel */
"4 38 4 1 ",
"  c #26292C",
". c #27292C",
"X c #28292D",
"o c None",
/* pixels */
"oooo",
"..oo",
"..Xo",
"...o",
"... ",
"....",
"....",
"....",
"....",
"....",
"....",
"....",
"....",
"....",
"....",
"....",
"....",
"....",
"....",
"....",
"....",
"....",
"....",
"....",
"....",
"....",
"....",
"....",
"....",
"....",
"....",
"....",
"....",
"....",
"....",
"....",
"....",
"...."
};
