/* XPM */
static char *top_right_inactive[] = {
/* columns rows colors chars-per-pixel */
"8 38 5 1 ",
"  c None",
". c #292B2E",
"X c #292B2F",
"o c #282C2D",
"O c #292C2E",
/* pixels */
"...     ",
"....o   ",
".....O  ",
"......o ",
"....... ",
".......X",
".......O",
"........",
"........",
"........",
"........",
"........",
"........",
"........",
"........",
"........",
"........",
"........",
"........",
"........",
"........",
"........",
"........",
"........",
"........",
"........",
"........",
"........",
"........",
"........",
"........",
"........",
"........",
"........",
"........",
"........",
"........",
"........"
};
