<?xml version="1.0" encoding="UTF-8" standalone="no"?>
<svg
   xmlns:dc="http://purl.org/dc/elements/1.1/"
   xmlns:cc="http://creativecommons.org/ns#"
   xmlns:rdf="http://www.w3.org/1999/02/22-rdf-syntax-ns#"
   xmlns:svg="http://www.w3.org/2000/svg"
   xmlns="http://www.w3.org/2000/svg"
   xmlns:sodipodi="http://sodipodi.sourceforge.net/DTD/sodipodi-0.dtd"
   xmlns:inkscape="http://www.inkscape.org/namespaces/inkscape"
   inkscape:version="1.0.1 (3bc2e813f5, 2020-09-07)"
   sodipodi:docname="stick-toggled-active.svg"
   id="svg156"
   version="1.1"
   viewBox="0 0 32 32"
   height="32"
   width="32">
  <metadata
     id="metadata162">
    <rdf:RDF>
      <cc:Work
         rdf:about="">
        <dc:format>image/svg+xml</dc:format>
        <dc:type
           rdf:resource="http://purl.org/dc/dcmitype/StillImage" />
      </cc:Work>
    </rdf:RDF>
  </metadata>
  <defs
     id="defs160" />
  <sodipodi:namedview
     inkscape:document-rotation="0"
     inkscape:current-layer="svg156"
     inkscape:window-maximized="1"
     inkscape:window-y="0"
     inkscape:window-x="0"
     inkscape:cy="30.40524"
     inkscape:cx="-38.500236"
     inkscape:zoom="7.375"
     showgrid="false"
     id="namedview158"
     inkscape:window-height="1000"
     inkscape:window-width="1920"
     inkscape:pageshadow="2"
     inkscape:pageopacity="0"
     guidetolerance="10"
     gridtolerance="10"
     objecttolerance="10"
     borderopacity="1"
     bordercolor="#666666"
     pagecolor="#ffffff" />
  <rect
     style="fill:#454545;fill-opacity:1"
     id="rect146"
     fill="#E0E0E0"
     height="32"
     width="32" />
  <rect
     style="fill:#000000;fill-opacity:1"
     id="rect148"
     fill-opacity="0.4"
     fill="#FFFFFF"
     height="1"
     width="32" />
  <g
     style="opacity:1;fill:#ffffff;fill-opacity:1"
     id="g154"
     opacity="0.6"
     fill="#000000">
    <circle
       id="circle150"
       opacity="0"
       r="12"
       cy="16"
       cx="16"
       style="fill:#ffffff;fill-opacity:1" />
    <path
       id="path152"
       d="m16 10a6 6 0 0 0 -6 6 6 6 0 0 0 6 6 6 6 0 0 0 6 -6 6 6 0 0 0 -6 -6zm0 2a4 4 0 0 1 4 4 4 4 0 0 1 -4 4 4 4 0 0 1 -4 -4 4 4 0 0 1 4 -4zm0 2a2 2 0 0 0 -2 2 2 2 0 0 0 2 2 2 2 0 0 0 2 -2 2 2 0 0 0 -2 -2z"
       style="fill:#ffffff;fill-opacity:1" />
  </g>
  <rect
     width="32"
     height="1"
     fill="#FFFFFF"
     fill-opacity="0.4"
     id="rect166"
     style="fill:#000000;fill-opacity:1"
     x="0"
     y="31" />
</svg>
