<?xml version="1.0" encoding="UTF-8" standalone="no"?>
<svg
   xmlns:dc="http://purl.org/dc/elements/1.1/"
   xmlns:cc="http://creativecommons.org/ns#"
   xmlns:rdf="http://www.w3.org/1999/02/22-rdf-syntax-ns#"
   xmlns:svg="http://www.w3.org/2000/svg"
   xmlns="http://www.w3.org/2000/svg"
   xmlns:sodipodi="http://sodipodi.sourceforge.net/DTD/sodipodi-0.dtd"
   xmlns:inkscape="http://www.inkscape.org/namespaces/inkscape"
   inkscape:version="0.92.5 (2060ec1f9f, 2020-04-08)"
   sodipodi:docname="stick-inactive.svg"
   id="svg138"
   version="1.1"
   viewBox="0 0 32 32"
   height="32"
   width="32">
  <metadata
     id="metadata144">
    <rdf:RDF>
      <cc:Work
         rdf:about="">
        <dc:format>image/svg+xml</dc:format>
        <dc:type
           rdf:resource="http://purl.org/dc/dcmitype/StillImage" />
        <dc:title />
      </cc:Work>
    </rdf:RDF>
  </metadata>
  <defs
     id="defs142" />
  <sodipodi:namedview
     inkscape:document-rotation="0"
     inkscape:current-layer="svg138"
     inkscape:window-maximized="1"
     inkscape:window-y="25"
     inkscape:window-x="0"
     inkscape:cy="14.711864"
     inkscape:cx="-54.98305"
     inkscape:zoom="7.375"
     showgrid="false"
     id="namedview140"
     inkscape:window-height="1023"
     inkscape:window-width="1920"
     inkscape:pageshadow="2"
     inkscape:pageopacity="0"
     guidetolerance="10"
     gridtolerance="10"
     objecttolerance="10"
     borderopacity="1"
     bordercolor="#666666"
     pagecolor="#ffffff" />
  <rect
     style="fill:#3d3d3d;fill-opacity:1"
     id="rect128"
     fill="#D6D6D6"
     height="32"
     width="32" />
  <rect
     style="fill:#1d1d1d;fill-opacity:1"
     id="rect130"
     fill-opacity="0.4"
     fill="#FFFFFF"
     height="1"
     width="32" />
  <g
     id="g136"
     opacity="0.38"
     fill="#000000"
     style="fill:#ffffff;fill-opacity:1;opacity:0.5">
    <circle
       id="circle132"
       opacity="0"
       r="12"
       cy="16"
       cx="16"
       style="fill:#ffffff;fill-opacity:1" />
    <path
       id="path134"
       d="m16 10a6 6 0 0 0 -6 6 6 6 0 0 0 6 6 6 6 0 0 0 6 -6 6 6 0 0 0 -6 -6zm0 2a4 4 0 0 1 4 4 4 4 0 0 1 -4 4 4 4 0 0 1 -4 -4 4 4 0 0 1 4 -4z"
       style="fill:#ffffff;fill-opacity:1" />
  </g>
</svg>
