<?xml version="1.0" encoding="UTF-8" standalone="no"?>
<svg
   width="32"
   height="16"
   viewBox="0 0 32 16"
   id="svg4140"
   version="1.1"
   inkscape:version="1.1 (c4e8f9ed74, 2021-05-24)"
   sodipodi:docname="switch-off.svg"
   xmlns:inkscape="http://www.inkscape.org/namespaces/inkscape"
   xmlns:sodipodi="http://sodipodi.sourceforge.net/DTD/sodipodi-0.dtd"
   xmlns="http://www.w3.org/2000/svg"
   xmlns:svg="http://www.w3.org/2000/svg"
   xmlns:rdf="http://www.w3.org/1999/02/22-rdf-syntax-ns#"
   xmlns:cc="http://creativecommons.org/ns#"
   xmlns:dc="http://purl.org/dc/elements/1.1/">
  <defs
     id="defs4142" />
  <sodipodi:namedview
     id="base"
     pagecolor="#ffffff"
     bordercolor="#666666"
     borderopacity="1.0"
     inkscape:pageopacity="0.0"
     inkscape:pageshadow="2"
     inkscape:zoom="22.4"
     inkscape:cx="-27.96875"
     inkscape:cy="11.25"
     inkscape:document-units="px"
     inkscape:current-layer="layer1"
     showgrid="false"
     units="px"
     inkscape:window-width="1918"
     inkscape:window-height="997"
     inkscape:window-x="0"
     inkscape:window-y="0"
     inkscape:window-maximized="1"
     inkscape:document-rotation="0"
     inkscape:pagecheckerboard="0">
    <inkscape:grid
       type="xygrid"
       id="grid4688" />
  </sodipodi:namedview>
  <metadata
     id="metadata4145">
    <rdf:RDF>
      <cc:Work
         rdf:about="">
        <dc:format>image/svg+xml</dc:format>
        <dc:type
           rdf:resource="http://purl.org/dc/dcmitype/StillImage" />
        <dc:title />
      </cc:Work>
    </rdf:RDF>
  </metadata>
  <g
     inkscape:label="Layer 1"
     inkscape:groupmode="layer"
     id="layer1"
     transform="translate(0,-1036.3622)">
    <path
       id="path857"
       style="fill:#ffffff;stroke-width:5.77698"
       d="m 24,1036.3622 c 4.432,0 8,3.568 8,8 0,4.432 -3.568,8 -8,8 H 8 c -4.432,0 -8,-3.568 -8,-8 0,-4.432 3.568,-8 8,-8 z m -0.5,1 h -15 c -1.03875,0 -2.025938,0.1955 -2.923828,0.5488 -0.897891,0.3533 -1.706953,0.8635 -2.384766,1.4961 -0.677812,0.6326 -1.225,1.3866 -1.603515,2.2246 C 1.209375,1042.4698 1,1043.3927 1,1044.3622 c 0,0.9695 0.209375,1.8924 0.587891,2.7305 0.378515,0.838 0.925703,1.592 1.603515,2.2246 0.677813,0.6326 1.486875,1.1428 2.384766,1.4961 0.89789,0.3533 1.885078,0.5488 2.923828,0.5488 h 15 c 1.03875,0 2.025938,-0.1955 2.923828,-0.5488 0.897891,-0.3533 1.706953,-0.8635 2.384766,-1.4961 0.677812,-0.6326 1.225,-1.3866 1.603515,-2.2246 0.378516,-0.8381 0.587891,-1.761 0.587891,-2.7305 0,-0.9695 -0.209375,-1.8924 -0.587891,-2.7305 -0.378515,-0.838 -0.925703,-1.592 -1.603515,-2.2246 -0.677813,-0.6326 -1.486875,-1.1428 -2.384766,-1.4961 -0.89789,-0.3533 -1.885078,-0.5488 -2.923828,-0.5488 z" />
    <circle
       style="fill:#ffffff;stroke-width:7.11177"
       id="path860"
       cx="-8"
       cy="1044.3622"
       r="5.5"
       transform="scale(-1,1)" />
  </g>
</svg>
