/* XPM */
static char *bottom_left_inactive[] = {
/* columns rows colors chars-per-pixel */
"24 24 2 1 ",
"  c None",
". c #F7F9FC",
/* pixels */
"...                     ",
"...                     ",
"...                     ",
"...                     ",
"...                     ",
"...                     ",
"...                     ",
"...                     ",
"...                     ",
"...                     ",
"...                     ",
"...                     ",
"...                     ",
"...                     ",
"...                     ",
"...                     ",
"...                     ",
"...                     ",
"...                     ",
"...                     ",
"...                     ",
"........................",
"........................",
"........................"
};
