/* XPM */
static char *close_inactive[] = {
/* columns rows colors chars-per-pixel */
"34 26 24 1 ",
"  c #4E6A8B",
". c #7389A4",
"X c #7389A5",
"o c #A2B2C5",
"O c #A6B4C8",
"+ c #A6B5C8",
"@ c #DEE4ED",
"# c #DFE5EE",
"$ c #E0E5EE",
"% c #E0E6EE",
"& c #E1E7EF",
"* c #E1E8EF",
"= c #E2E8F0",
"- c #E3E9F0",
"; c #E3E9F1",
": c #E6ECF2",
"> c #E7EDF3",
", c #E8EEF4",
"< c #EBF0F6",
"1 c #EBF0F7",
"2 c #ECF0F7",
"3 c #ECF1F7",
"4 c #EDF2F8",
"5 c #EFF3F9",
/* pixels */
"5555555555553>;&%%&;>2555555555555",
"55555555551=##########;15555555555",
"555555555:##############:555555555",
"55555554=################;45555555",
"5555555;##################;5555555",
"555555:####################:555555",
"55555<######################155555",
"55555;######################-55555",
"55552########@######@########25555",
"5555>#######@XO####OX@#######,5555",
"5555;########+ o##+ o########-5555",
"5555*#########+ o+ o#########&5555",
"5555%##########O  O##########%5555",
"5555$##########O  O##########$5555",
"5555*#########+ o+ o#########&5555",
"5555;########+ o##+ o########-5555",
"5555>#######@.O####OX@#######,5555",
"55552########@######@########25555",
"55555;######################-55555",
"55555<######################155555",
"555555:####################:555555",
"5555555-##################;5555555",
"55555554;################-45555555",
"555555555:##############:555555555",
"55555555553-##########;<5555555555",
"5555555555552,-&%%&-,2555555555555"
};
