/* XPM */
static char *close_inactive[] = {
/* columns rows colors chars-per-pixel */
"30 30 8 1 ",
"  c #49586A",
". c #717D8D",
"X c #727E8D",
"o c #A5AEB9",
"O c #A9B1BC",
"+ c #A9B2BD",
"@ c #E6EBF1",
"# c #E7ECF2",
/* pixels */
"##############################",
"##############################",
"##############################",
"##############################",
"##############################",
"##############################",
"##############################",
"##############################",
"##############################",
"##############################",
"###########@######@###########",
"##########@.O####O.@##########",
"###########+ o##+ o###########",
"############+ o+ o############",
"#############O  O#############",
"#############O  O#############",
"############+ o+ o############",
"###########+ o##+ o###########",
"##########@XO####O.@##########",
"###########@######@###########",
"##############################",
"##############################",
"##############################",
"##############################",
"##############################",
"##############################",
"##############################",
"##############################",
"##############################",
"##############################"
};
