/* XPM */
static char *close_pressed[] = {
/* columns rows colors chars-per-pixel */
"34 26 26 1 ",
"  c #082D5D",
". c #36557B",
"X c #37567C",
"o c #7289A3",
"O c #778DA7",
"+ c #788DA7",
"@ c #BEC8D6",
"# c #BFCAD7",
"$ c #C1CDD9",
"% c #C8D0DD",
"& c #CDD4E0",
"* c #CED5E1",
"= c #CFD6E1",
"- c #D6DDE6",
"; c #D7DDE7",
": c #DAE1E9",
"> c #DAE1EA",
", c #DCE3EB",
"< c #EAEEF4",
"1 c #EBEFF5",
"2 c #EDF1F5",
"3 c #EDF1F6",
"4 c #EEF2F6",
"5 c #F3F5FA",
"6 c #F6F8FB",
"7 c #F7F9FC",
/* pixels */
"7777777777772>*%$$%*:2777777777777",
"7777777777<&##########*<7777777777",
"777777776-##############-677777777",
"77777775&################*57777777",
"7777776*##################*6777777",
"777777-####################;777777",
"777771######################<77777",
"77777*######################*77777",
"77772########@######@########27777",
"7777>#######@.O####O.@#######,7777",
"7777*########+ o##+ o########*7777",
"7777%#########+ o+ o#########%7777",
"7777$##########O  O##########$7777",
"7777$##########O  O##########$7777",
"7777%#########+ o+ o#########%7777",
"7777*########+ o##+ o########*7777",
"7777:#######@XO####O.@#######,7777",
"77774########@######@########27777",
"77777*######################*77777",
"777771######################177777",
"777777-####################;777777",
"7777777=##################*6777777",
"77777775*################*57777777",
"777777776-##############;677777777",
"77777777773=##########*17777777777",
"7777777777772,*%$$%*,4777777777777"
};
