/* XPM */
static char *close_pressed[] = {
/* columns rows colors chars-per-pixel */
"34 34 16 1 ",
"  c #082D5C",
". c #325179",
"X c #33527A",
"o c #69819E",
"O c #6D84A0",
"+ c #6E85A1",
"@ c #AEBBCC",
"# c #AFBCCD",
"$ c #B0BECE",
"% c #B4C1D1",
"& c #B5C1D2",
"* c #B5C2D2",
"= c #BFCBD9",
"- c #C9D3DE",
"; c #CBD4E0",
": c #CCD5E1",
/* pixels */
"::;=&$######################$&=;::",
":-%############################%-:",
";%##############################%;",
"=################################=",
"*################################&",
"$################################$",
"##################################",
"##################################",
"##################################",
"##################################",
"##################################",
"##################################",
"#############@######@#############",
"############@.O####O.@############",
"#############+ o##+ o#############",
"##############+ o+ o##############",
"###############O  O###############",
"###############O  O###############",
"##############+ o+ o##############",
"#############+ o##+ o#############",
"############@XO####O.@############",
"#############@######@#############",
"##################################",
"##################################",
"##################################",
"##################################",
"##################################",
"##################################",
"$################################$",
"&################################&",
"=################################=",
";%##############################%;",
":-%############################%-:",
"::;=&$######################$&=;::"
};
