/* XPM */
static char *hide_inactive[] = {
/* columns rows colors chars-per-pixel */
"34 26 18 1 ",
"  c #4C688A",
". c #DFE5EE",
"X c #E0E5EE",
"o c #E0E6EE",
"O c #E1E7EF",
"+ c #E1E8EF",
"@ c #E2E8F0",
"# c #E3E9F0",
"$ c #E3E9F1",
"% c #E6ECF2",
"& c #E7EDF3",
"* c #E8EEF4",
"= c #EBF0F6",
"- c #EBF0F7",
"; c #ECF0F7",
": c #ECF1F7",
"> c #EDF2F8",
", c #EFF3F9",
/* pixels */
",,,,,,,,,,,,:&$OooO$&;,,,,,,,,,,,,",
",,,,,,,,,,-@..........$-,,,,,,,,,,",
",,,,,,,,,%..............%,,,,,,,,,",
",,,,,,,>@................$>,,,,,,,",
",,,,,,,$..................$,,,,,,,",
",,,,,,%....................%,,,,,,",
",,,,,=......................-,,,,,",
",,,,,$......................#,,,,,",
",,,,;........................;,,,,",
",,,,&........................*,,,,",
",,,,$........................#,,,,",
",,,,+........................O,,,,",
",,,,o........................o,,,,",
",,,,X........................X,,,,",
",,,,+........................O,,,,",
",,,,$........        ........#,,,,",
",,,,&........................*,,,,",
",,,,;........................;,,,,",
",,,,,$......................#,,,,,",
",,,,,=......................-,,,,,",
",,,,,,%....................%,,,,,,",
",,,,,,,#..................$,,,,,,,",
",,,,,,,>$................#>,,,,,,,",
",,,,,,,,,%..............%,,,,,,,,,",
",,,,,,,,,,:#..........$=,,,,,,,,,,",
",,,,,,,,,,,,;*#OooO#*;,,,,,,,,,,,,"
};
