/* XPM */
static char *maximize_pressed[] = {
/* columns rows colors chars-per-pixel */
"34 26 20 1 ",
"  c #062C5B",
". c #BFCAD7",
"X c #C1CDD9",
"o c #C8D0DD",
"O c #CDD4E0",
"+ c #CED5E1",
"@ c #CFD6E1",
"# c #D6DDE6",
"$ c #D7DDE7",
"% c #DAE1E9",
"& c #DAE1EA",
"* c #DCE3EB",
"= c #EAEEF4",
"- c #EBEFF5",
"; c #EDF1F5",
": c #EDF1F6",
"> c #EEF2F6",
", c #F3F5FA",
"< c #F6F8FB",
"1 c #F7F9FC",
/* pixels */
"111111111111;&+oXXo+%;111111111111",
"1111111111=O..........+=1111111111",
"11111111<#..............#<11111111",
"1111111,O................+,1111111",
"111111<+..................+<111111",
"111111#....................$111111",
"11111-......................=11111",
"11111+......................+11111",
"1111;........................;1111",
"1111&........        ........*1111",
"1111+........ ...... ........+1111",
"1111o........ ...... ........o1111",
"1111X........ ...... ........X1111",
"1111X........ ...... ........X1111",
"1111o........ ...... ........o1111",
"1111+........ ...... ........+1111",
"1111%........        ........*1111",
"1111>........................;1111",
"11111+......................+11111",
"11111-......................-11111",
"111111#....................$111111",
"1111111@..................+<111111",
"1111111,+................+,1111111",
"11111111<#..............$<11111111",
"1111111111:@..........+-1111111111",
"111111111111;*+oXXo+*>111111111111"
};
