/* XPM */
static char *maximize_active[] = {
/* columns rows colors chars-per-pixel */
"30 30 2 1 ",
"  c #03162D",
". c #DBE0E6",
/* pixels */
"..............................",
"..............................",
"..............................",
"..............................",
"..............................",
"..............................",
"..............................",
"..............................",
"..............................",
"..............................",
"..............................",
"...........        ...........",
"........... ...... ...........",
"........... ...... ...........",
"........... ...... ...........",
"........... ...... ...........",
"........... ...... ...........",
"........... ...... ...........",
"...........        ...........",
"..............................",
"..............................",
"..............................",
"..............................",
"..............................",
"..............................",
"..............................",
"..............................",
"..............................",
"..............................",
".............................."
};
