/* XPM */
static char *top_right_inactive[] = {
/* columns rows colors chars-per-pixel */
"4 38 4 1 ",
"  c #E7ECF1",
". c #E7ECF2",
"X c #E8EDF1",
"o c None",
/* pixels */
"oooo",
".Xoo",
".. o",
"...o",
"....",
"....",
"....",
"....",
"....",
"....",
"....",
"....",
"....",
"....",
"....",
"....",
"....",
"....",
"....",
"....",
"....",
"....",
"....",
"....",
"....",
"....",
"....",
"....",
"....",
"....",
"....",
"....",
"....",
"....",
"....",
"....",
"....",
"...."
};
