/* XPM */
static char *top_right_active[] = {
/* columns rows colors chars-per-pixel */
"4 38 3 1 ",
"  c #DBE0E5",
". c #DBE0E6",
"X c None",
/* pixels */
"XXXX",
"..XX",
"...X",
"...X",
"... ",
"....",
"....",
"....",
"....",
"....",
"....",
"....",
"....",
"....",
"....",
"....",
"....",
"....",
"....",
"....",
"....",
"....",
"....",
"....",
"....",
"....",
"....",
"....",
"....",
"....",
"....",
"....",
"....",
"....",
"....",
"....",
"....",
"...."
};
