/* XPM */
static char *top_left_active[] = {
/* columns rows colors chars-per-pixel */
"8 38 8 1 ",
"  c None",
". c #F7F9FB",
"X c #F6FAFB",
"o c #F7F9FC",
"O c #F7F9FD",
"+ c #F6FAFC",
"@ c #F7FAFC",
"# c #F8FAFB",
/* pixels */
"     #Oo",
"   +oooo",
"  @ooooo",
" +oooooo",
" ooooooo",
"Xooooooo",
".ooooooo",
"oooooooo",
"oooooooo",
"oooooooo",
"oooooooo",
"oooooooo",
"oooooooo",
"oooooooo",
"oooooooo",
"oooooooo",
"oooooooo",
"oooooooo",
"oooooooo",
"oooooooo",
"oooooooo",
"oooooooo",
"oooooooo",
"oooooooo",
"oooooooo",
"oooooooo",
"oooooooo",
"oooooooo",
"oooooooo",
"oooooooo",
"oooooooo",
"oooooooo",
"oooooooo",
"oooooooo",
"oooooooo",
"oooooooo",
"oooooooo",
"oooooooo"
};
