/* XPM */
static char *top_left_active[] = {
/* columns rows colors chars-per-pixel */
"4 38 3 1 ",
"  c #DBE0E6",
". c #DBE1E6",
"X c None",
/* pixels */
"XXXX",
"XX  ",
"X   ",
"X   ",
".   ",
"    ",
"    ",
"    ",
"    ",
"    ",
"    ",
"    ",
"    ",
"    ",
"    ",
"    ",
"    ",
"    ",
"    ",
"    ",
"    ",
"    ",
"    ",
"    ",
"    ",
"    ",
"    ",
"    ",
"    ",
"    ",
"    ",
"    ",
"    ",
"    ",
"    ",
"    ",
"    ",
"    "
};
