/* XPM */
static char *bottom_left_active[] = {
/* columns rows colors chars-per-pixel */
"24 24 2 1 ",
"  c None",
". c #E7E7E7",
/* pixels */
"...                     ",
"...                     ",
"...                     ",
"...                     ",
"...                     ",
"...                     ",
"...                     ",
"...                     ",
"...                     ",
"...                     ",
"...                     ",
"...                     ",
"...                     ",
"...                     ",
"...                     ",
"...                     ",
"...                     ",
"...                     ",
"...                     ",
"...                     ",
"...                     ",
"........................",
"........................",
"........................"
};
