/* XPM */
static char *close_active[] = {
/* columns rows colors chars-per-pixel */
"34 26 26 1 ",
"  c #323232",
". c gray39",
"X c #646464",
"o c #A4A4A4",
"O c #A9A9A9",
"+ c #C6C6C6",
"@ c gray79",
"# c #CACACA",
"$ c #CECECE",
"% c #D2D2D2",
"& c LightGray",
"* c gray83",
"= c #D7D7D7",
"- c #D8D8D8",
"; c gray85",
": c gray88",
"> c #E1E1E1",
", c #E2E2E2",
"< c gray90",
"1 c #E6E6E6",
"2 c #E7E7E7",
"3 c gray93",
"4 c gray95",
"5 c #F3F3F3",
"6 c #F4F4F4",
"7 c gray96",
/* pixels */
"222222222222,=$#++#$=,222222222222",
"2222222222:$#;135531;#$>2222222222",
"222222221&@>6777777776>@&122222222",
"2222222<$%57777777777774%$<2222222",
"2222221$;7777777777777777;$1222222",
"222222&&777777777777777777%*222222",
"22222:@57777777777777777774@>22222",
"22222$>77777777777777777777>$22222",
"2222,#7777777577777757777775#,2222",
"2222=;7777775.O7777O.5777777;-2222",
"2222$17777777O o77O o77777772$2222",
"2222#377777777O oO o777777773#2222",
"2222+5777777777O  O7777777775+2222",
"2222+5777777777O  O7777777774+2222",
"2222#377777777O oO o777777773#2222",
"2222$17777777O o77O o77777772$2222",
"2222=;7777775XO7777O.5777777--2222",
"2222,#5777777577777757777775@,2222",
"22222$>77777777777777777777>$22222",
"22222>@47777777777777777774@>22222",
"222222&&777777777777777777%*222222",
"2222221$;7777777777777777;$1222222",
"2222222<$%47777777777774&$<2222222",
"222222221&@>5777777775>@*122222222",
"2222222222>$#;135532-@$>2222222222",
"222222222222,-$#++#$-,222222222222"
};
