/* XPM */
static char *close_pressed[] = {
/* columns rows colors chars-per-pixel */
"34 26 26 1 ",
"  c #323232",
". c #5B5B5B",
"X c gray36",
"o c #929292",
"O c gray59",
"+ c #979797",
"@ c #C6C6C6",
"# c gray78",
"$ c #CACACA",
"% c #CBCBCB",
"& c gray80",
"* c #CECECE",
"= c #D0D0D0",
"- c gray82",
"; c LightGray",
": c gray83",
"> c #D5D5D5",
", c gray84",
"< c #D7D7D7",
"1 c #D8D8D8",
"2 c gray88",
"3 c #E1E1E1",
"4 c #E2E2E2",
"5 c gray90",
"6 c #E6E6E6",
"7 c #E7E7E7",
/* pixels */
"7777777777774<*$@@$*<4777777777777",
"77777777772*#*;,<<,;*#*37777777777",
"777777776;@=1<<<<<<<<,=@;677777777",
"77777775*%<<<<<<<<<<<<<<%*57777777",
"7777776**<<<<<<<<<<<<<<<<**6777777",
"777777;&<<<<<<<<<<<<<<<<<<%:777777",
"777772@<<<<<<<<<<<<<<<<<<<<@377777",
"77777*=<<<<<<<<<<<<<<<<<<<<=*77777",
"77774#<<<<<<<><<<<<<><<<<<<<#47777",
"7777<*<<<<<<>.+<<<<+.><<<<<<*17777",
"7777*;<<<<<<<O o<<O o<<<<<<<;*7777",
"7777$,<<<<<<<<O oO o<<<<<<<<,$7777",
"7777@<<<<<<<<<<+  +<<<<<<<<<<@7777",
"7777@<<<<<<<<<<+  +<<<<<<<<<<@7777",
"7777$,<<<<<<<<O oO o<<<<<<<<,$7777",
"7777*;<<<<<<<O o<<O o<<<<<<<;*7777",
"7777<*<<<<<<>X+<<<<+.><<<<<<*17777",
"77774#<<<<<<<><<<<<<><<<<<<<@47777",
"77777*=<<<<<<<<<<<<<<<<<<<<-*77777",
"777773@<<<<<<<<<<<<<<<<<<<<@377777",
"777777;&<<<<<<<<<<<<<<<<<<%:777777",
"7777776**<<<<<<<<<<<<<<<<**6777777",
"77777775*%<<<<<<<<<<<<<<&*57777777",
"777777776;#-<<<<<<<<<<=@:677777777",
"77777777773*#*;,<<,;*@*37777777777",
"77777777777741*$@@$*14777777777777"
};
