/* XPM */
static char *close_inactive[] = {
/* columns rows colors chars-per-pixel */
"34 26 30 1 ",
"  c #6C6C6C",
". c #8E8E8E",
"X c gray56",
"o c #BCBCBC",
"O c gray75",
"+ c #C0C0C0",
"@ c #CECECE",
"# c #D0D0D0",
"$ c gray82",
"% c #D2D2D2",
"& c gray84",
"* c #D7D7D7",
"= c #D8D8D8",
"- c gray86",
"; c gainsboro",
": c #DDDDDD",
"> c #DFDFDF",
", c gray88",
"< c #E4E4E4",
"1 c gray90",
"2 c gray91",
"3 c #E9E9E9",
"4 c #EAEAEA",
"5 c gray92",
"6 c #EEEEEE",
"7 c #EFEFEF",
"8 c gray94",
"9 c #F3F3F3",
"0 c #F4F4F4",
"q c gray96",
/* pixels */
"8888888888884>&%@@%&>4888888888888",
"88888888882&$:379973:$&38888888888",
"888888887-$1qqqqqqqqq0<$-788888888",
"88888886&*9qqqqqqqqqqqq9*&68888888",
"8888887&:qqqqqqqqqqqqqqqq:&7888888",
"888888-=qqqqqqqqqqqqqqqqqq*;888888",
"888882$9qqqqqqqqqqqqqqqqqq9#388888",
"88888&1qqqqqqqqqqqqqqqqqqqq1&88888",
"88884$qqqqqqq0qqqqqq0qqqqqq0$48888",
"8888>:qqqqqq0.OqqqqO.0qqqqqq:,8888",
"8888&3qqqqqqq+ oqq+ oqqqqqqq3&8888",
"8888%7qqqqqqqq+ o+ oqqqqqqqq7%8888",
"8888@9qqqqqqqqqO  Oqqqqqqqqq9@8888",
"8888@9qqqqqqqqqO  Oqqqqqqqqq9@8888",
"8888%7qqqqqqqq+ o+ oqqqqqqqq6%8888",
"8888&3qqqqqqq+ oqq+ oqqqqqqq3&8888",
"8888>:qqqqqq0XOqqqqO.0qqqqqq;,8888",
"88884$0qqqqqq0qqqqqq0qqqqqq0$58888",
"88888&1qqqqqqqqqqqqqqqqqqqq1&88888",
"888883#9qqqqqqqqqqqqqqqqqq9#388888",
"888888-=qqqqqqqqqqqqqqqqqq*;888888",
"8888887&:qqqqqqqqqqqqqqqq:&7888888",
"88888886&*9qqqqqqqqqqqq9=&68888888",
"888888887-#<0qqqqqqqq01#;788888888",
"88888888883&$:369963;$&38888888888",
"8888888888884,&%@@%&,5888888888888"
};
