/* XPM */
static char *hide_active[] = {
/* columns rows colors chars-per-pixel */
"34 26 22 1 ",
"  c gray19",
". c #C6C6C6",
"X c gray79",
"o c #CACACA",
"O c #CECECE",
"+ c #D2D2D2",
"@ c LightGray",
"# c gray83",
"$ c #D7D7D7",
"% c #D8D8D8",
"& c gray85",
"* c gray88",
"= c #E1E1E1",
"- c #E2E2E2",
"; c gray90",
": c #E6E6E6",
"> c #E7E7E7",
", c gray93",
"< c gray95",
"1 c #F3F3F3",
"2 c #F4F4F4",
"3 c gray96",
/* pixels */
">>>>>>>>>>>>-$Oo..oO$->>>>>>>>>>>>",
">>>>>>>>>>*Oo&:,11,:&oO=>>>>>>>>>>",
">>>>>>>>:@X=2333333332=X@:>>>>>>>>",
">>>>>>>;O+1333333333333<+O;>>>>>>>",
">>>>>>:O&3333333333333333&O:>>>>>>",
">>>>>>@@333333333333333333+#>>>>>>",
">>>>>*X1333333333333333333<X=>>>>>",
">>>>>O=33333333333333333333=O>>>>>",
">>>>-o3333333333333333333331o->>>>",
">>>>$&3333333333333333333333&%>>>>",
">>>>O:3333333333333333333333>O>>>>",
">>>>o,3333333333333333333333,o>>>>",
">>>>.133333333333333333333331.>>>>",
">>>>.13333333333333333333333<.>>>>",
">>>>o,3333333333333333333333,o>>>>",
">>>>O:3333333        3333333>O>>>>",
">>>>$&3333333333333333333333%%>>>>",
">>>>-o1333333333333333333331X->>>>",
">>>>>O=33333333333333333333=O>>>>>",
">>>>>=X<333333333333333333<X=>>>>>",
">>>>>>@@333333333333333333+#>>>>>>",
">>>>>>:O&3333333333333333&O:>>>>>>",
">>>>>>>;O+<333333333333<@O;>>>>>>>",
">>>>>>>>:@X=1333333331=X#:>>>>>>>>",
">>>>>>>>>>=Oo&:,11,>%XO=>>>>>>>>>>",
">>>>>>>>>>>>-%Oo..oO%->>>>>>>>>>>>"
};
