/* XPM */
static char *maximize_inactive[] = {
/* columns rows colors chars-per-pixel */
"34 26 25 1 ",
"  c #6A6A6A",
". c #CECECE",
"X c #D0D0D0",
"o c gray82",
"O c #D2D2D2",
"+ c gray84",
"@ c #D7D7D7",
"# c #D8D8D8",
"$ c gray86",
"% c gainsboro",
"& c #DDDDDD",
"* c #DFDFDF",
"= c gray88",
"- c #E4E4E4",
"; c gray90",
": c gray91",
"> c #E9E9E9",
", c #EAEAEA",
"< c gray92",
"1 c #EEEEEE",
"2 c #EFEFEF",
"3 c gray94",
"4 c #F3F3F3",
"5 c #F4F4F4",
"6 c gray96",
/* pixels */
"333333333333,*+O..O+*,333333333333",
"3333333333:+o&>2442>&o+>3333333333",
"333333332$o;6666666665-o$233333333",
"33333331+@46666666666664@+13333333",
"3333332+&6666666666666666&+2333333",
"333333$#666666666666666666@%333333",
"33333:o46666666666666666664X>33333",
"33333+;66666666666666666666;+33333",
"3333,o6666666666666666666665o,3333",
"3333*&6666666        6666666&=3333",
"3333+>6666666 666666 6666666>+3333",
"3333O26666666 666666 66666662O3333",
"3333.46666666 666666 66666664.3333",
"3333.46666666 666666 66666664.3333",
"3333O26666666 666666 66666661O3333",
"3333+>6666666 666666 6666666>+3333",
"3333*&6666666        6666666%=3333",
"3333,o5666666666666666666665o<3333",
"33333+;66666666666666666666;+33333",
"33333>X46666666666666666664X>33333",
"333333$#666666666666666666@%333333",
"3333332+&6666666666666666&+2333333",
"33333331+@46666666666664#+13333333",
"333333332$X-5666666665;X%233333333",
"3333333333>+o&>1441>%o+>3333333333",
"333333333333,=+O..O+=<333333333333"
};
