/* XPM */
static char *maximize_pressed[] = {
/* columns rows colors chars-per-pixel */
"34 26 20 1 ",
"  c gray19",
". c #C6C6C6",
"X c gray78",
"o c #CACACA",
"O c #CBCBCB",
"+ c gray80",
"@ c #CECECE",
"# c #D0D0D0",
"$ c gray82",
"% c LightGray",
"& c gray83",
"* c gray84",
"= c #D7D7D7",
"- c #D8D8D8",
"; c gray88",
": c #E1E1E1",
"> c #E2E2E2",
", c gray90",
"< c #E6E6E6",
"1 c #E7E7E7",
/* pixels */
"111111111111>=@o..o@=>111111111111",
"1111111111;@X@%*==*%@X@:1111111111",
"11111111<%.#-========*#.%<11111111",
"1111111,@O==============O@,1111111",
"111111<@@================@@<111111",
"111111%+==================O&111111",
"11111;.====================.:11111",
"11111@#====================#@11111",
"1111>X======================X>1111",
"1111=@=======        =======@-1111",
"1111@%======= ====== =======%@1111",
"1111o*======= ====== =======*o1111",
"1111.======== ====== ========.1111",
"1111.======== ====== ========.1111",
"1111o*======= ====== =======*o1111",
"1111@%======= ====== =======%@1111",
"1111=@=======        =======@-1111",
"1111>X======================.>1111",
"11111@#====================$@11111",
"11111:.====================.:11111",
"111111%+==================O&111111",
"111111<@@================@@<111111",
"1111111,@O==============+@,1111111",
"11111111<%X$==========#.&<11111111",
"1111111111:@X@%*==*%@.@:1111111111",
"111111111111>-@o..o@->111111111111"
};
