/* XPM */
static char *maximize_prelight[] = {
/* columns rows colors chars-per-pixel */
"34 26 39 1 ",
"  c gray19",
". c #BBBBBB",
"X c #BCBCBC",
"o c gray74",
"O c gray",
"+ c gray75",
"@ c #C0C0C0",
"# c #C1C1C1",
"$ c gray76",
"% c #C3C3C3",
"& c gray77",
"* c #C5C5C5",
"= c #C6C6C6",
"- c #CACACA",
"; c #CECECE",
": c #D0D0D0",
"> c gray82",
", c LightGray",
"< c gray83",
"1 c gray84",
"2 c #D7D7D7",
"3 c #D8D8D8",
"4 c gray88",
"5 c #E1E1E1",
"6 c #E2E2E2",
"7 c gray89",
"8 c gray90",
"9 c #E6E6E6",
"0 c #E7E7E7",
"q c gray91",
"w c #E9E9E9",
"e c #EAEAEA",
"r c gray92",
"t c #ECECEC",
"y c #EEEEEE",
"u c #F1F1F1",
"i c gray95",
"p c #F3F3F3",
"a c gray96",
/* pixels */
"00000000000062;-==-;26000000000000",
"00000000004;=%oo..oO%=;50000000000",
"000000009,&@O>6rppr6>O@*,900000000",
"00000008;%O1iaaaaaaaau1O&;80000000",
"0000009;%#eaaaaaaaaaaaaw@%;9000000",
"000000,&#yaaaaaaaaaaaaaay@&<000000",
"000004&OeaaaaaaaaaaaaaaaawO*500000",
"00000;#2aaaaaaaaaaaaaaaaaa1#;00000",
"00006=+iaaaaaaaaaaaaaaaaaauo*60000",
"00002%>aaaaaa        aaaaaa:%30000",
"0000;O6aaaaaa aaaaaa aaaaaa7+;0000",
"0000-Xtaaaaaa aaaaaa aaaaaaro-0000",
"0000=Xiaaaaaa aaaaaa aaaaaaiX=0000",
"0000=Xiaaaaaa aaaaaa aaaaaai.=0000",
"0000-otaaaaaa aaaaaa aaaaaaro-0000",
"0000;O6aaaaaa aaaaaa aaaaaa7@;0000",
"00002%>aaaaaa        aaaaaa:%30000",
"00006=ouaaaaaaaaaaaaaaaaaauo&60000",
"00000;@1aaaaaaaaaaaaaaaaaa1$;00000",
"000005*OwaaaaaaaaaaaaaaaaqO*500000",
"000000,*@yaaaaaaaaaaaaaay@&<000000",
"0000009;%@waaaaaaaaaaaaq@&;9000000",
"00000008;&O1uaaaaaaaau1O*;80000000",
"000000009,*#o:6riir7:o#*<900000000",
"00000000005;*&OoXXo+%&;50000000000",
"00000000000063;-==-;36000000000000"
};
