/* XPM */
static char *top_right_active[] = {
/* columns rows colors chars-per-pixel */
"8 38 3 1 ",
"  c None",
". c #FDFDFD",
"X c #FEFEFE",
/* pixels */
"...     ",
".....   ",
".....X  ",
"....... ",
"....... ",
"........",
"........",
"........",
"........",
"........",
"........",
"........",
"........",
"........",
"........",
"........",
"........",
"........",
"........",
"........",
"........",
"........",
"........",
"........",
"........",
"........",
"........",
"........",
"........",
"........",
"........",
"........",
"........",
"........",
"........",
"........",
"........",
"........"
};
