/* XPM */
static char *bottom_right_inactive[] = {
/* columns rows colors chars-per-pixel */
"24 24 2 1 ",
"  c #1764C3",
". c None",
/* pixels */
".....................   ",
".....................   ",
".....................   ",
".....................   ",
".....................   ",
".....................   ",
".....................   ",
".....................   ",
".....................   ",
".....................   ",
".....................   ",
".....................   ",
".....................   ",
".....................   ",
".....................   ",
".....................   ",
".....................   ",
".....................   ",
".....................   ",
".....................   ",
".....................   ",
"                        ",
"                        ",
"                        "
};
