/* XPM */
static char *bottom_right_active[] = {
/* columns rows colors chars-per-pixel */
"24 24 2 1 ",
"  c None",
". c #1764C3",
/* pixels */
"                     ...",
"                     ...",
"                     ...",
"                     ...",
"                     ...",
"                     ...",
"                     ...",
"                     ...",
"                     ...",
"                     ...",
"                     ...",
"                     ...",
"                     ...",
"                     ...",
"                     ...",
"                     ...",
"                     ...",
"                     ...",
"                     ...",
"                     ...",
"                     ...",
"........................",
"........................",
"........................"
};
