/* XPM */
static char *close_prelight[] = {
/* columns rows colors chars-per-pixel */
"34 26 65 1 ",
"  c #1456A7",
". c #1457AB",
"X c #1459AE",
"o c #1D5CAC",
"O c #1D5DAC",
"+ c #1E5EAC",
"@ c #155BB2",
"# c #155CB3",
"$ c #155DB5",
"% c #155DB6",
"& c #1661BD",
"* c #1661BE",
"= c #1662BE",
"- c #1762BF",
"; c #316DB6",
": c #326DB6",
"> c #336DB6",
", c #3E76BC",
"< c #3E77BD",
"1 c #3F78BD",
"2 c #4078BD",
"3 c #1763C1",
"4 c #1764C2",
"5 c #1764C3",
"6 c #4583CF",
"7 c #4684CF",
"8 c #5086C7",
"9 c #5186C7",
"0 c #5287C7",
"q c #5388C8",
"w c #5488C8",
"e c #5D90CD",
"r c #5E90CD",
"t c #4784D0",
"y c #4885D0",
"u c #4985D0",
"i c #4C87D1",
"p c #4D88D1",
"a c #4E89D1",
"s c #508AD2",
"d c #518BD2",
"f c #578FD4",
"g c #6090CE",
"h c #6196D6",
"j c #6296D7",
"k c #6397D7",
"l c #6B9AD5",
"z c #6D9CD5",
"x c #679AD8",
"c c #689AD8",
"v c #75A2D9",
"b c #77A3DB",
"n c #77A4DA",
"m c #75A3DC",
"M c #76A3DC",
"N c #76A4DC",
"B c #77A4DC",
"V c #78A4DB",
"C c #79A5DB",
"Z c #8CB3E1",
"A c #8DB3E2",
"S c #92B6E3",
"D c #CDDEF2",
"F c #CEDEF2",
"G c #FDFEFE",
/* pixels */
"555555555555=$X.  .X$=555555555555",
"5555555555&X+1glCClr1+X*5555555555",
"555555554@+qBxfattafxVwO@455555555",
"55555553X>vjy66666666ujv:X35555555",
"5555554X2Ns666666666666dB1X4555555",
"555555@:mi66666666666666iB:#555555",
"55555&+vs6666666666666666dvO*55555",
"55555Xqh666666666666666666k9X55555",
"5555=+By666667666666766666ub+=5555",
"5555$2x666667FA6666AF766666c1%5555",
"5555Xrf666666ZGS66ZGS666666frX5555",
"5555.zp6666666ZGSZGS6666666al.5555",
"5555 Vy66666666AGGA66666666yV 5555",
"5555 ny66666666AGGA66666666yn 5555",
"5555.lp6666666ZGSZGS6666666al.5555",
"5555Xrf666666ZGS66ZGS666666feX5555",
"5555$1x666667DA6666AF766666c,%5555",
"5555=+bu666667666666766666ub+-5555",
"55555Xqj666666666666666666k8X55555",
"55555*Ovd6666666666666666dvO*55555",
"555555@;Mi66666666666666iB:#555555",
"5555554X1Md666666666666dM<X4555555",
"55555553X:vku66666666ukv:X35555555",
"555555554@o8bcfayyafcb0O#455555555",
"5555555555*X+<rlVVlr,+X*5555555555",
"555555555555=%X.  .X%-555555555555"
};
