/* XPM */
static char *close_pressed[] = {
/* columns rows colors chars-per-pixel */
"34 26 42 1 ",
"  c #1456A7",
". c #1457AB",
"X c #1459AE",
"o c #1A5AAB",
"O c #1C5BAB",
"+ c #1C5CAB",
"@ c #155BB2",
"# c #155CB3",
"$ c #155DB5",
"% c #155DB6",
"& c #1661BD",
"* c #1661BE",
"= c #1662BE",
"- c #1762BF",
"; c #2867B3",
": c #2967B4",
"> c #326EB9",
", c #326FB9",
"< c #336FB9",
"1 c #1763C1",
"2 c #1764C2",
"3 c #1764C3",
"4 c #3F7AC3",
"5 c #407AC3",
"6 c #417BC3",
"7 c #437CC4",
"8 c #4A82C8",
"9 c #4B82C8",
"0 c #548BCE",
"q c #558CCE",
"w c #5D92D3",
"e c #5D93D4",
"r c #5F93D5",
"t c #5F94D6",
"y c #6194D5",
"u c #6095D6",
"i c #6195D6",
"p c #6296D6",
"a c #9EBEE6",
"s c #A2C1E7",
"d c #D5E3F4",
"f c #FDFEFF",
/* pixels */
"333333333333=$X.  .X$=333333333333",
"3333333333&X+,90ee08,+X*3333333333",
"333333332@O6tiiiiiiiiy7O@233333333",
"33333331X:wiiiiiiiiiiiiw:X13333333",
"3333332X<iiiiiiiiiiiiiiii,X2333333",
"333333@;uiiiiiiiiiiiiiiiii:#333333",
"33333&OwiiiiiiiiiiiiiiiiiiwO*33333",
"33333X6iiiiiiiiiiiiiiiiiiii5X33333",
"3333=+uiiiiiipiiiiiipiiiiiirO=3333",
"3333$<iiiiiipdaiiiiadpiiiiii,%3333",
"3333X8iiiiiiiafsiiafsiiiiiii8X3333",
"3333.qiiiiiiiiafsafsiiiiiiii0.3333",
"3333 eiiiiiiiiiaffaiiiiiiiiie 3333",
"3333 wiiiiiiiiiaffaiiiiiiiiiw 3333",
"3333.0iiiiiiiiafsafsiiiiiiii0.3333",
"3333X8iiiiiiiafsiiafsiiiiiii8X3333",
"3333$,iiiiiipdaiiiiadpiiiiii>%3333",
"3333=+riiiiiipiiiiiipiiiiiirO-3333",
"33333X6iiiiiiiiiiiiiiiiiiii5X33333",
"33333*OwiiiiiiiiiiiiiiiiiiwO*33333",
"333333@;uiiiiiiiiiiiiiiiii:#333333",
"3333332X,uiiiiiiiiiiiiiiu,X2333333",
"33333331X:wiiiiiiiiiiiiw:X13333333",
"333333332@o4riiiiiiiir6O#233333333",
"3333333333*XO,80ee08>OX*3333333333",
"333333333333=%X.  .X%-333333333333"
};
