/* XPM */
static char *close_pressed[] = {
/* columns rows colors chars-per-pixel */
"30 30 26 1 ",
"  c #1764C3",
". c #1865C3",
"X c #1E69C5",
"o c #1F69C5",
"O c #216BC6",
"+ c #226BC6",
"@ c #266EC7",
"# c #276FC7",
"$ c #2870C7",
"% c #2970C8",
"& c #2A71C8",
"* c #2D73C9",
"= c #2E73C9",
"- c #3176CA",
"; c #3276CA",
": c #3578CB",
"> c #3679CB",
", c #3779CB",
"< c #397ACC",
"1 c #3A7BCC",
"2 c #3C7CCC",
"3 c #86AEE0",
"4 c #8BB1E1",
"5 c #CADCF1",
"6 c #CBDCF2",
"7 c #FDFDFE",
/* pixels */
"          o&;,<<,;&o          ",
"       .#,1111111111,@.       ",
"      +>11111111111111>+      ",
"     #111111111111111111%     ",
"    =11111111111111111111*    ",
"   %1111111111111111111111$   ",
"  +111111111111111111111111+  ",
" .>111111111111111111111111:. ",
" #11111111111111111111111111@ ",
" ,11111111111111111111111111> ",
"o1111111111211111121111111111o",
"&1111111112631111362111111111&",
";1111111111374113741111111111-",
",1111111111137437411111111111,",
"<1111111111113773111111111111<",
"<1111111111113773111111111111<",
",1111111111137437411111111111,",
";1111111111374113741111111111-",
"&1111111112531111362111111111%",
"o1111111111211111121111111111X",
" ,11111111111111111111111111> ",
" @11111111111111111111111111@ ",
" .:111111111111111111111111:. ",
"  +111111111111111111111111O  ",
"   $1111111111111111111111$   ",
"    *11111111111111111111*    ",
"     #111111111111111111%     ",
"      +:11111111111111:O      ",
"       .@>1111111111>@.       ",
"          o&-,<<,-%o          "
};
