/* XPM */
static char *close_inactive[] = {
/* columns rows colors chars-per-pixel */
"34 26 25 1 ",
"  c #83ACDE",
". c #84ACDE",
"X c #84ADDE",
"o c #84ACDF",
"O c #84ADDF",
"+ c #85ADDF",
"@ c #84AEDF",
"# c #86AFDF",
"$ c #87AFDF",
"% c #87B0DF",
"& c #88B0DF",
"* c #89B0DF",
"= c #89B1DF",
"- c #88B0E0",
"; c #89B1E0",
": c #8AB1E0",
"> c #8AB2E0",
", c #8BB2E0",
"< c #8AB2E1",
"1 c #8CB3E0",
"2 c #AAC6E8",
"3 c #ACC8E9",
"4 c #C5D8F0",
"5 c #C6D9F0",
"6 c #D9E5F5",
/* pixels */
"            O$;:,,:;$o            ",
"          @*,,,,,,,,,,;@          ",
"         -,,,,,,,,,,,,,,-         ",
"        *,,,,,,,,,,,,,,,,;        ",
"       ;,,,,,,,,,,,,,,,,,,;       ",
"      -,,,,,,,,,,,,,,,,,,,,-      ",
"     O,,,,,,,,,,,,,,,,,,,,,,@     ",
"     ;,,,,,,,,,,,,,,,,,,,,,,;     ",
"    .,,,,,,,,1,,,,,,1,,,,,,,,o    ",
"    $,,,,,,,152,,,,251,,,,,,,%    ",
"    ;,,,,,,,,263,,263,,,,,,,,;    ",
"    <,,,,,,,,,263263,,,,,,,,,:    ",
"    ,,,,,,,,,,,2662,,,,,,,,,,,    ",
"    ,,,,,,,,,,,2662,,,,,,,,,,,    ",
"    >,,,,,,,,,263263,,,,,,,,,:    ",
"    ;,,,,,,,,263,,263,,,,,,,,=    ",
"    $,,,,,,,142,,,,251,,,,,,,#    ",
"    .,,,,,,,,1,,,,,,1,,,,,,,,.    ",
"     ;,,,,,,,,,,,,,,,,,,,,,,=     ",
"     X,,,,,,,,,,,,,,,,,,,,,,@     ",
"      -,,,,,,,,,,,,,,,,,,,,&      ",
"       *,,,,,,,,,,,,,,,,,,;       ",
"        ;,,,,,,,,,,,,,,,,;        ",
"         -,,,,,,,,,,,,,,&         ",
"          +*,,,,,,,,,,;O          ",
"            .%;:,,:=$.            "
};
