/* XPM */
static char *hide_active[] = {
/* columns rows colors chars-per-pixel */
"34 26 37 1 ",
"  c #1456A7",
". c #1457AB",
"X c #1758AA",
"o c #1459AE",
"O c #1859AA",
"+ c #185AAA",
"@ c #155BB2",
"# c #155CB3",
"$ c #155DB5",
"% c #155DB6",
"& c #1661BD",
"* c #1661BE",
"= c #1662BE",
"- c #1762BF",
"; c #2061B1",
": c #2161B2",
"> c #2667B6",
", c #2667B7",
"< c #2767B7",
"1 c #2E6FBE",
"2 c #2F6FBE",
"3 c #3070BE",
"4 c #3170BF",
"5 c #1763C1",
"6 c #1764C2",
"7 c #1764C3",
"8 c #3675C2",
"9 c #3775C3",
"0 c #3D7BC8",
"q c #3E7CC8",
"w c #4280CC",
"e c #4381CD",
"r c #4481CE",
"t c #4582CE",
"y c #4482CF",
"u c #4583CF",
"i c white",
/* pixels */
"777777777777=$o.  .o$=777777777777",
"7777777777&o+,90ee08,+o*7777777777",
"777777776@O3yuuuuuuuut4O@677777777",
"77777775o:wuuuuuuuuuuuuw:o57777777",
"7777776o<uuuuuuuuuuuuuuuu,o6777777",
"777777@;yuuuuuuuuuuuuuuuuu:#777777",
"77777&OwuuuuuuuuuuuuuuuuuuwO*77777",
"77777o3uuuuuuuuuuuuuuuuuuuu2o77777",
"7777=+yuuuuuuuuuuuuuuuuuuuurO=7777",
"7777$<uuuuuuuuuuuuuuuuuuuuuu,%7777",
"7777o8uuuuuuuuuuuuuuuuuuuuuu8o7777",
"7777.quuuuuuuuuuuuuuuuuuuuuu0.7777",
"7777 euuuuuuuuuuuuuuuuuuuuuue 7777",
"7777 wuuuuuuuuuuuuuuuuuuuuuuw 7777",
"7777.0uuuuuuuuuuuuuuuuuuuuuu0.7777",
"7777o8uuuuuuuiiiiiiiiuuuuuuu8o7777",
"7777$,uuuuuuuuuuuuuuuuuuuuuu>%7777",
"7777=+ruuuuuuuuuuuuuuuuuuuurO-7777",
"77777o3uuuuuuuuuuuuuuuuuuuu2o77777",
"77777*OwuuuuuuuuuuuuuuuuuuwO*77777",
"777777@;yuuuuuuuuuuuuuuuuu:#777777",
"7777776o,yuuuuuuuuuuuuuuy,o6777777",
"77777775o:wuuuuuuuuuuuuw:o57777777",
"777777776@X1ruuuuuuuur3O#677777777",
"7777777777*oO,80ee08>Oo*7777777777",
"777777777777=%o.  .o%-777777777777"
};
