/* XPM */
static char *hide_inactive[] = {
/* columns rows colors chars-per-pixel */
"34 26 40 1 ",
"  c #7192BB",
". c #7394BE",
"X c #7395BE",
"o c #7395BF",
"O c #7494BD",
"+ c #7495BE",
"@ c #7697C2",
"# c #7A9BC4",
"$ c #799BC7",
"% c #7A9CC4",
"& c #7A9CC5",
"* c #799CC8",
"= c #7B9ECB",
"- c #7B9FCB",
"; c #7E9FC8",
": c #7F9FC8",
"> c #7FA0C9",
", c #85A7CF",
"< c #86A7CF",
"1 c #80A5D3",
"2 c #86A7D0",
"3 c #80A5D4",
"4 c #81A6D5",
"5 c #81A7D6",
"6 c #86A8D0",
"7 c #89AAD3",
"8 c #8AAAD3",
"9 c #8AABD3",
"0 c #83A9D8",
"q c #83A9D9",
"w c #84AADA",
"e c #8FB0D8",
"r c #8FB0D9",
"t c #92B4DC",
"y c #93B4DC",
"u c #93B5DD",
"i c #94B5DD",
"p c #94B6DE",
"a c #95B6DE",
"s c #DAE5F4",
/* pixels */
"wwwwwwwwwwww4=@o  o@=4wwwwwwwwwwww",
"wwwwwwwwww1@O>8eyye9>O@3wwwwwwwwww",
"wwwwwwwwq$X<paaaaaaaai6X$qwwwwwwww",
"wwwwwww0@%uaaaaaaaaaaaay%@0wwwwwww",
"wwwwwwq@:aaaaaaaaaaaaaaaa>@qwwwwww",
"wwwwww$&paaaaaaaaaaaaaaaaa%*wwwwww",
"wwwww1XuaaaaaaaaaaaaaaaaaatX3wwwww",
"wwwww@<aaaaaaaaaaaaaaaaaaaa2@wwwww",
"wwww4Opaaaaaaaaaaaaaaaaaaaau+4wwww",
"wwww=>aaaaaaaaaaaaaaaaaaaaaa>-wwww",
"wwww@9aaaaaaaaaaaaaaaaaaaaaa7@wwww",
"wwwwoeaaaaaaaaaaaaaaaaaaaaaarowwww",
"wwww yaaaaaaaaaaaaaaaaaaaaaay wwww",
"wwww uaaaaaaaaaaaaaaaaaaaaaay wwww",
"wwwworaaaaaaaaaaaaaaaaaaaaaaeowwww",
"wwww@9aaaaaaassssssssaaaaaaa7@wwww",
"wwww=>aaaaaaaaaaaaaaaaaaaaaa;-wwww",
"wwww4OuaaaaaaaaaaaaaaaaaaaauX5wwww",
"wwwww@<aaaaaaaaaaaaaaaaaaaa,@wwwww",
"wwwww3Xyaaaaaaaaaaaaaaaaaat.3wwwww",
"wwwwww$%paaaaaaaaaaaaaaaaa%*wwwwww",
"wwwwwwq@>paaaaaaaaaaaaaap>@qwwwwww",
"wwwwwww0@%yaaaaaaaaaaaat#@0wwwwwww",
"wwwwwwwwq$.,uaaaaaaaau<X*qwwwwwwww",
"wwwwwwwwww3@+>9eyye7;X@3wwwwwwwwww",
"wwwwwwwwwwww4-@o  o@-5wwwwwwwwwwww"
};
