/* XPM */
static char *maximize_inactive[] = {
/* columns rows colors chars-per-pixel */
"34 26 20 1 ",
"  c #83ACDE",
". c #84ACDE",
"X c #84ADDE",
"o c #84ACDF",
"O c #84ADDF",
"+ c #85ADDF",
"@ c #84AEDF",
"# c #86AFDF",
"$ c #87AFDF",
"% c #87B0DF",
"& c #88B0DF",
"* c #89B0DF",
"= c #89B1DF",
"- c #88B0E0",
"; c #89B1E0",
": c #8AB1E0",
"> c #8AB2E0",
", c #8BB2E0",
"< c #8AB2E1",
"1 c #DAE6F5",
/* pixels */
"            O$;:,,:;$o            ",
"          @*,,,,,,,,,,;@          ",
"         -,,,,,,,,,,,,,,-         ",
"        *,,,,,,,,,,,,,,,,;        ",
"       ;,,,,,,,,,,,,,,,,,,;       ",
"      -,,,,,,,,,,,,,,,,,,,,-      ",
"     O,,,,,,,,,,,,,,,,,,,,,,@     ",
"     ;,,,,,,,,,,,,,,,,,,,,,,;     ",
"    .,,,,,,,,,,,,,,,,,,,,,,,,o    ",
"    $,,,,,,,,11111111,,,,,,,,%    ",
"    ;,,,,,,,,1,,,,,,1,,,,,,,,;    ",
"    <,,,,,,,,1,,,,,,1,,,,,,,,:    ",
"    ,,,,,,,,,1,,,,,,1,,,,,,,,,    ",
"    ,,,,,,,,,1,,,,,,1,,,,,,,,,    ",
"    >,,,,,,,,1,,,,,,1,,,,,,,,:    ",
"    ;,,,,,,,,1,,,,,,1,,,,,,,,=    ",
"    $,,,,,,,,11111111,,,,,,,,#    ",
"    .,,,,,,,,,,,,,,,,,,,,,,,,.    ",
"     ;,,,,,,,,,,,,,,,,,,,,,,=     ",
"     X,,,,,,,,,,,,,,,,,,,,,,@     ",
"      -,,,,,,,,,,,,,,,,,,,,&      ",
"       *,,,,,,,,,,,,,,,,,,;       ",
"        ;,,,,,,,,,,,,,,,,;        ",
"         -,,,,,,,,,,,,,,&         ",
"          +*,,,,,,,,,,;O          ",
"            .%;:,,:=$.            "
};
