/* XPM */
static char *maximize_prelight[] = {
/* columns rows colors chars-per-pixel */
"34 26 59 1 ",
"  c #1456A7",
". c #1457AB",
"X c #1459AE",
"o c #1D5CAC",
"O c #1D5DAC",
"+ c #1E5EAC",
"@ c #155BB2",
"# c #155CB3",
"$ c #155DB5",
"% c #155DB6",
"& c #1661BD",
"* c #1661BE",
"= c #1662BE",
"- c #1762BF",
"; c #316DB6",
": c #326DB6",
"> c #336DB6",
", c #3E76BC",
"< c #3E77BD",
"1 c #3F78BD",
"2 c #4078BD",
"3 c #1763C1",
"4 c #1764C2",
"5 c #1764C3",
"6 c #4583CF",
"7 c #5086C7",
"8 c #5186C7",
"9 c #5287C7",
"0 c #5388C8",
"q c #5488C8",
"w c #5D90CD",
"e c #5E90CD",
"r c #4784D0",
"t c #4885D0",
"y c #4985D0",
"u c #4C87D1",
"i c #4D88D1",
"p c #4E89D1",
"a c #508AD2",
"s c #518BD2",
"d c #578FD4",
"f c #6090CE",
"g c #6196D6",
"h c #6296D7",
"j c #6397D7",
"k c #6B9AD5",
"l c #6D9CD5",
"z c #679AD8",
"x c #689AD8",
"c c #75A2D9",
"v c #77A3DB",
"b c #77A4DA",
"n c #75A3DC",
"m c #76A3DC",
"M c #76A4DC",
"N c #77A4DC",
"B c #78A4DB",
"V c #79A5DB",
"C c white",
/* pixels */
"555555555555=$X.  .X$=555555555555",
"5555555555&X+1fkVVke1+X*5555555555",
"555555554@+0NzdprrpdzBqO@455555555",
"55555553X>cht66666666yhc:X35555555",
"5555554X2Ma666666666666sN1X4555555",
"555555@:nu66666666666666uN:#555555",
"55555&+ca6666666666666666scO*55555",
"55555X0g666666666666666666j8X55555",
"5555=+Nt666666666666666666yv+=5555",
"5555$2z666666CCCCCCCC666666x1%5555",
"5555Xed666666C666666C666666deX5555",
"5555.li666666C666666C666666pk.5555",
"5555 Bt666666C666666C666666tB 5555",
"5555 bt666666C666666C666666tb 5555",
"5555.ki666666C666666C666666pk.5555",
"5555Xed666666C666666C666666dwX5555",
"5555$1z666666CCCCCCCC666666x,%5555",
"5555=+vy666666666666666666yv+-5555",
"55555X0h666666666666666666j7X55555",
"55555*Ocs6666666666666666scO*55555",
"555555@;mu66666666666666uN:#555555",
"5555554X1ms666666666666sm<X4555555",
"55555553X:cjy66666666yjc:X35555555",
"555555554@o7vxdpttpdxv9O#455555555",
"5555555555*X+<ekBBke,+X*5555555555",
"555555555555=%X.  .X%-555555555555"
};
