/* XPM */
static char *top_left_inactive[] = {
/* columns rows colors chars-per-pixel */
"4 38 4 1 ",
"  c #7FA7DA",
". c #7FA8DA",
"X c #80A8DA",
"o c None",
/* pixels */
"oooo",
"ooX.",
"oX..",
"o...",
" ...",
"....",
"....",
"....",
"....",
"....",
"....",
"....",
"....",
"....",
"....",
"....",
"....",
"....",
"....",
"....",
"....",
"....",
"....",
"....",
"....",
"....",
"....",
"....",
"....",
"....",
"....",
"....",
"....",
"....",
"....",
"....",
"....",
"...."
};
