/* XPM */
static char *top_right_active[] = {
/* columns rows colors chars-per-pixel */
"4 38 3 1 ",
"  c #1764C3",
". c #1864C4",
"X c None",
/* pixels */
"XXXX",
"  XX",
"  .X",
"   X",
"    ",
"    ",
"    ",
"    ",
"    ",
"    ",
"    ",
"    ",
"    ",
"    ",
"    ",
"    ",
"    ",
"    ",
"    ",
"    ",
"    ",
"    ",
"    ",
"    ",
"    ",
"    ",
"    ",
"    ",
"    ",
"    ",
"    ",
"    ",
"    ",
"    ",
"    ",
"    ",
"    ",
"    "
};
