/* XPM */
static char *top_left_active[] = {
/* columns rows colors chars-per-pixel */
"8 38 6 1 ",
"  c None",
". c #1763C3",
"X c #1764C2",
"o c #1765C2",
"O c #1764C3",
"+ c #1765C3",
/* pixels */
"     XOO",
"   oOOOO",
"  OOOOOO",
" oOOOOOO",
" OOOOOOO",
".OOOOOOO",
"+OOOOOOO",
"OOOOOOOO",
"OOOOOOOO",
"OOOOOOOO",
"OOOOOOOO",
"OOOOOOOO",
"OOOOOOOO",
"OOOOOOOO",
"OOOOOOOO",
"OOOOOOOO",
"OOOOOOOO",
"OOOOOOOO",
"OOOOOOOO",
"OOOOOOOO",
"OOOOOOOO",
"OOOOOOOO",
"OOOOOOOO",
"OOOOOOOO",
"OOOOOOOO",
"OOOOOOOO",
"OOOOOOOO",
"OOOOOOOO",
"OOOOOOOO",
"OOOOOOOO",
"OOOOOOOO",
"OOOOOOOO",
"OOOOOOOO",
"OOOOOOOO",
"OOOOOOOO",
"OOOOOOOO",
"OOOOOOOO",
"OOOOOOOO"
};
